<svg width="48" height="39" viewBox="0 0 48 39" fill="none" xmlns="http://www.w3.org/2000/svg">
<path d="M44.2595 34.5744C46.4881 31.122 47.7748 27.0608 47.7748 22.7131C47.7748 10.1695 37.0804 0 23.8874 0C10.6944 0 0 10.168 0 22.7131C0 27.6427 1.65718 30.9796 4.46314 34.7018L14.2458 38.916C15.0766 38.9715 15.9074 39 16.7398 39L31.6019 38.88C32.5602 38.88 33.5201 38.8425 34.4754 38.7691L44.2595 34.5759V34.5744Z" fill="white"/>
<path d="M23.8874 0C10.6944 0 0 10.1695 0 22.7131C0 27.6427 1.65718 30.9795 4.46314 34.7018L10.9224 37.8422C7.73551 36.5585 3.99523 29.6508 3.99523 23.9009C3.99523 17.1687 7.24211 11.7127 11.2478 11.7127C15.0076 11.7127 18.1 16.5223 18.4645 22.6816L18.5004 23.7944C18.5004 26.5299 20.7185 28.748 23.454 28.748C26.1895 28.748 28.4075 26.5299 28.4075 23.7944L28.4435 22.7251C28.8125 16.5463 32.0578 11.7142 36.0081 11.7142C40.2058 11.7142 43.6086 17.1717 43.6086 23.9024C43.6086 28.622 39.4739 35.8776 37.0279 37.9037L44.2595 34.5759C46.4881 31.1235 47.7748 27.0623 47.7748 22.7146C47.7748 10.171 37.0804 0.0014966 23.8874 0.0014966V0Z" fill="#52BFD3"/>
<path d="M31.2989 16.9737C31.2059 16.9737 31.1129 16.9317 31.0499 16.8523C30.9434 16.7158 30.9689 16.5193 31.1069 16.4128C32.965 14.9776 35.0991 15.5505 35.1876 15.5745C35.3541 15.621 35.4516 15.7935 35.4051 15.9599C35.3586 16.1264 35.1861 16.2239 35.0197 16.1774C34.9897 16.1699 33.088 15.6735 31.4893 16.9077C31.4323 16.9512 31.3649 16.9737 31.2989 16.9737Z" fill="#666666"/>
<path d="M15.5444 16.9737C15.4784 16.9737 15.4109 16.9527 15.3539 16.9077C13.7507 15.669 11.8431 16.1729 11.8236 16.1774C11.6586 16.2239 11.4847 16.1249 11.4382 15.9584C11.3917 15.792 11.4892 15.6195 11.6556 15.573C11.7456 15.5475 13.8797 14.9761 15.7364 16.4113C15.8728 16.5178 15.8983 16.7143 15.7933 16.8507C15.7319 16.9302 15.6389 16.9722 15.5444 16.9722V16.9737Z" fill="#666666"/>
<path d="M22.5226 21.3064L19.5531 23.8319C19.1422 24.1814 19.2292 24.7003 19.7436 24.9747L22.713 26.5524C23.1195 26.7684 23.6789 26.7684 24.0853 26.5524L27.0547 24.9747C27.5691 24.7018 27.6561 24.1814 27.2452 23.8319L24.2757 21.3064C23.8213 20.9195 22.977 20.9195 22.5226 21.3064Z" fill="#F6E076"/>
<path d="M32.6501 23.6129C33.9604 23.6129 35.0227 22.2506 35.0227 20.57C35.0227 18.8895 33.9604 17.5271 32.6501 17.5271C31.3398 17.5271 30.2776 18.8895 30.2776 20.57C30.2776 22.2506 31.3398 23.6129 32.6501 23.6129Z" fill="#666666"/>
<path d="M33.046 21.077C33.5421 21.077 33.9443 20.5163 33.9443 19.8247C33.9443 19.1331 33.5421 18.5725 33.046 18.5725C32.5498 18.5725 32.1476 19.1331 32.1476 19.8247C32.1476 20.5163 32.5498 21.077 33.046 21.077Z" fill="white"/>
<path d="M14.2232 23.6129C15.5335 23.6129 16.5957 22.2506 16.5957 20.57C16.5957 18.8895 15.5335 17.5271 14.2232 17.5271C12.9129 17.5271 11.8506 18.8895 11.8506 20.57C11.8506 22.2506 12.9129 23.6129 14.2232 23.6129Z" fill="#666666"/>
<path d="M14.82 21.077C15.3161 21.077 15.7183 20.5163 15.7183 19.8247C15.7183 19.1331 15.3161 18.5725 14.82 18.5725C14.3239 18.5725 13.9217 19.1331 13.9217 19.8247C13.9217 20.5163 14.3239 21.077 14.82 21.077Z" fill="white"/>
<path d="M34.8697 38.2517H12.3365C8.74323 38.2517 5.82029 35.3287 5.82029 31.7354V9.20223C5.82029 5.60892 8.74323 2.68598 12.3365 2.68598H34.8697C38.463 2.68598 41.386 5.60892 41.386 9.20223V31.7354C41.386 35.3287 38.463 38.2517 34.8697 38.2517ZM12.3365 4.59362C9.79453 4.59362 7.72793 6.66172 7.72793 9.20223V31.7354C7.72793 34.2774 9.79603 36.344 12.3365 36.344H34.8697C37.4117 36.344 39.4783 34.2759 39.4783 31.7354V9.20223C39.4783 6.66022 37.4102 4.59362 34.8697 4.59362H12.3365Z" fill="#52BFD3"/>
<path d="M27.6291 33.3476L23.6384 33.4406L19.5547 33.3476V31.9289L23.5919 31.8269L27.6291 31.9289V33.3476Z" fill="#666666"/>
<path d="M28.8934 35.7426H27.1163C26.6469 35.7426 26.2674 35.3617 26.2674 34.8938V30.2732C26.2674 29.8038 26.6484 29.4243 27.1163 29.4243H28.8934C29.7063 29.4243 30.3646 30.0827 30.3646 30.8956V34.2729C30.3646 35.0858 29.7063 35.7441 28.8934 35.7441V35.7426Z" fill="#666666"/>
<path d="M18.3129 35.7426H20.0901C20.5595 35.7426 20.9389 35.3617 20.9389 34.8938V30.2732C20.9389 29.8038 20.558 29.4243 20.0901 29.4243H18.3129C17.5001 29.4243 16.8417 30.0827 16.8417 30.8956V34.2729C16.8417 35.0858 17.5001 35.7441 18.3129 35.7441V35.7426Z" fill="#666666"/>
<path d="M27.6291 33.3476L23.6384 33.4406L19.5547 33.3476V31.9289L23.5919 31.8269L27.6291 31.9289V33.3476Z" fill="#666666"/>
<path d="M28.8934 35.7426H27.1163C26.6469 35.7426 26.2674 35.3617 26.2674 34.8938V30.2732C26.2674 29.8038 26.6484 29.4243 27.1163 29.4243H28.8934C29.7063 29.4243 30.3646 30.0827 30.3646 30.8956V34.2729C30.3646 35.0858 29.7063 35.7441 28.8934 35.7441V35.7426Z" fill="#666666"/>
<path d="M18.3129 35.7426H20.0901C20.5595 35.7426 20.9389 35.3617 20.9389 34.8938V30.2732C20.9389 29.8038 20.558 29.4243 20.0901 29.4243H18.3129C17.5001 29.4243 16.8417 30.0827 16.8417 30.8956V34.2729C16.8417 35.0858 17.5001 35.7441 18.3129 35.7441V35.7426Z" fill="#666666"/>
</svg>
