<svg width="48" height="39" viewBox="0 0 48 39" fill="none" xmlns="http://www.w3.org/2000/svg">
<path d="M44.2595 34.5744C46.4881 31.122 47.7748 27.0608 47.7748 22.7131C47.7748 10.1695 37.0804 0 23.8874 0C10.6944 0 0 10.168 0 22.7131C0 27.6427 1.65718 30.9796 4.46314 34.7018L14.2458 38.916C15.0766 38.9715 15.9074 39 16.7398 39L31.6019 38.88C32.5602 38.88 33.5201 38.8425 34.4754 38.7691L44.2595 34.5759V34.5744Z" fill="white"/>
<path d="M23.8874 0C10.6944 0 0 10.1695 0 22.7131C0 27.6427 1.65718 30.9795 4.46314 34.7018L10.9224 37.8422C7.73551 36.5585 3.99523 29.6508 3.99523 23.9009C3.99523 17.1687 7.24211 11.7127 11.2478 11.7127C15.0076 11.7127 18.1 16.5223 18.4645 22.6816L18.5004 23.7944C18.5004 26.5299 20.7185 28.748 23.454 28.748C26.1895 28.748 28.4075 26.5299 28.4075 23.7944L28.4435 22.7251C28.8125 16.5463 32.0578 11.7142 36.0081 11.7142C40.2058 11.7142 43.6086 17.1717 43.6086 23.9024C43.6086 28.622 39.4739 35.8776 37.0279 37.9037L44.2595 34.5759C46.4881 31.1235 47.7748 27.0623 47.7748 22.7146C47.7748 10.171 37.0804 0.0014966 23.8874 0.0014966V0Z" fill="#52BFD3"/>
</svg>
