<svg width="170" height="34" viewBox="0 0 170 34" fill="none" xmlns="http://www.w3.org/2000/svg">
<path d="M61.0666 3.38539H49.8526C48.2039 3.38539 46.8686 4.72074 46.8686 6.36941V26.0222C45.9853 28.5497 44.9886 30.2551 44.0905 31.3502C43.7935 31.7128 46.8686 30.9802 46.8686 30.9802H51.0537C51.7131 30.9802 52.2473 30.446 52.2473 29.7866V18.8173H60.4877C60.7353 18.8173 60.9353 18.6174 60.9353 18.3697V14.6307C60.9353 14.383 60.7353 14.1831 60.4877 14.1831H52.2473V8.01958H61.0666C61.3143 8.01958 61.5142 7.81965 61.5142 7.57197V3.83448C61.5142 3.58681 61.3143 3.38688 61.0666 3.38688V3.38539Z" fill="#52BFD3"/>
<path d="M71.2033 2.54536C73.3563 2.07985 75.2705 3.9941 74.805 6.14708C74.5589 7.28996 73.6472 8.19859 72.5058 8.44478C70.3544 8.90879 68.4416 6.99603 68.9056 4.84455C69.1518 3.70167 70.0619 2.79154 71.2033 2.54536ZM74.3783 13.5131V30.531C74.3783 30.7787 74.1784 30.9786 73.9307 30.9786H69.7784C69.5308 30.9786 69.3308 30.7787 69.3308 30.531V16.0496C69.3308 14.4009 70.6662 13.0655 72.3149 13.0655H73.9307C74.1784 13.0655 74.3783 13.2655 74.3783 13.5131Z" fill="#52BFD3"/>
<path d="M90.6367 17.3685V30.531C90.6367 30.7787 90.4367 30.9786 90.1891 30.9786H86.0368C85.7891 30.9786 85.5892 30.7787 85.5892 30.531V17.3685H84.0509C83.8033 17.3685 83.6033 17.1686 83.6033 16.9209V13.5131C83.6033 13.2655 83.8033 13.0655 84.0509 13.0655H85.5892V9.92634C85.5892 8.27767 86.9245 6.94232 88.5732 6.94232H90.1935C90.4382 6.94232 90.6352 7.14075 90.6352 7.38395V13.0655H93.6625C93.9102 13.0655 94.1101 13.2655 94.1101 13.5131V16.9209C94.1101 17.1686 93.9102 17.3685 93.6625 17.3685H90.6352H90.6367Z" fill="#52BFD3"/>
<path d="M116.865 15.0096C118.643 16.6225 119.885 19.1052 119.885 22.043C119.885 24.9808 118.643 27.4217 116.865 29.0346C115.334 30.4415 113.017 31.5576 109.626 31.5576C106.234 31.5576 103.917 30.44 102.386 29.0346C100.608 27.4217 99.3665 24.939 99.3665 22.043C99.3665 19.147 100.608 16.624 102.386 15.0096C103.917 13.6027 106.234 12.4866 109.626 12.4866C113.017 12.4866 115.334 13.6042 116.865 15.0096ZM114.672 22.043C114.672 19.2291 112.52 16.9537 109.624 16.9537C106.728 16.9537 104.577 19.2291 104.577 22.043C104.577 24.8569 106.686 27.0905 109.624 27.0905C112.562 27.0905 114.672 24.7734 114.672 22.043Z" fill="#52BFD3"/>
<path d="M131.26 1.2667V19.6006L137.092 13.9115C137.65 13.3684 138.398 13.064 139.175 13.064H143.364C143.77 13.064 143.967 13.5609 143.67 13.8384L136.1 20.924L144.486 30.2297C144.746 30.5176 144.542 30.9772 144.154 30.9772H139.816C138.953 30.9772 138.132 30.6027 137.565 29.9521L131.797 23.3231L131.258 23.82V30.5296C131.258 30.7772 131.058 30.9772 130.811 30.9772H126.658C126.411 30.9772 126.211 30.7772 126.211 30.5296V3.5838C126.211 2.05597 127.449 0.817607 128.977 0.817607H130.811C131.058 0.817607 131.258 1.01754 131.258 1.26521L131.26 1.2667Z" fill="#52BFD3"/>
<path d="M165.709 8.09269C164.178 6.68572 161.861 5.56969 158.47 5.56969C155.078 5.56969 152.761 6.68721 151.23 8.09269C149.452 9.70556 148.211 12.1883 148.211 15.126C148.211 16.2659 148.406 17.3402 148.748 18.3249C148.951 20.648 148.836 22.4787 148.564 23.8648C148.472 24.3347 150.332 22.7607 151.156 22.046C151.181 22.0699 151.205 22.0937 151.23 22.1176C152.761 23.5246 155.078 24.6406 158.47 24.6406C161.861 24.6406 164.178 23.5231 165.709 22.1176C167.487 20.5048 168.729 18.022 168.729 15.126C168.729 12.23 167.487 9.70705 165.709 8.09269ZM158.468 20.172C155.53 20.172 153.421 17.8549 153.421 15.1245C153.421 12.3942 155.572 10.0353 158.468 10.0353C161.364 10.0353 163.516 12.3106 163.516 15.1245C163.516 17.9385 161.406 20.172 158.468 20.172Z" fill="#52BFD3"/>
<path d="M159.45 27.4859C159.365 26.9875 158.91 26.6294 158.398 26.6757L152.305 27.2173C152.199 27.2262 152.099 27.2531 152.006 27.2919C152.006 27.2919 152.005 27.2919 152.003 27.2919L151.139 27.3755C150.799 27.4083 150.484 27.5992 150.329 27.9021C150.095 28.3602 150.252 28.9003 150.66 29.1703L151.523 29.7373C151.535 29.7463 151.548 29.7552 151.56 29.7627L156.585 33.066C157.006 33.342 157.58 33.2883 157.904 32.9034C158.289 32.4453 158.18 31.7709 157.695 31.4531L157.689 31.4486C157.486 31.3159 157.615 30.9995 157.853 31.0458L158.247 31.1219C158.796 31.2278 159.331 30.8518 159.404 30.2804C159.463 29.8074 159.15 29.3658 158.698 29.2181L158.271 29.0793C158.043 29.0047 158.08 28.6705 158.319 28.6481L158.579 28.6228C159.116 28.5706 159.51 28.0946 159.459 27.5575C159.456 27.5321 159.453 27.5067 159.448 27.4829L159.45 27.4859Z" fill="#F6E076"/>
<path d="M168.668 23.0397C168.36 22.6383 167.79 22.5354 167.359 22.8158L162.228 26.1445C162.14 26.2027 162.062 26.2714 162 26.3504C162 26.3504 162 26.3504 161.998 26.3519L161.273 26.8294C160.988 27.0174 160.799 27.3337 160.803 27.6738C160.811 28.1886 161.202 28.5929 161.689 28.6392L162.717 28.7376C162.732 28.7391 162.747 28.7421 162.762 28.7436L168.748 29.3136C169.248 29.3613 169.733 29.045 169.839 28.5526C169.964 27.9678 169.552 27.4232 168.975 27.368H168.968C168.726 27.3456 168.691 27.0069 168.924 26.9353L169.308 26.8174C169.842 26.6533 170.139 26.0714 169.936 25.5328C169.767 25.0867 169.285 24.8435 168.815 24.9241L168.374 25.0002C168.136 25.0404 168.013 24.7286 168.214 24.5973L168.432 24.4541C168.882 24.1572 169.008 23.5529 168.712 23.1008C168.699 23.0799 168.684 23.059 168.669 23.0397H168.668Z" fill="#F6E076"/>
<mask id="mask0_13_144" style="mask-type:luminance" maskUnits="userSpaceOnUse" x="0" y="0" width="34" height="34">
<path d="M27.9514 0H5.53388C2.4776 0 0 2.4776 0 5.53388V27.9514C0 31.0077 2.4776 33.4853 5.53388 33.4853H27.9514C31.0076 33.4853 33.4852 31.0077 33.4852 27.9514V5.53388C33.4852 2.4776 31.0076 0 27.9514 0Z" fill="white"/>
</mask>
<g mask="url(#mask0_13_144)">
<path d="M37.2928 30.7758C39.5099 27.3411 40.7901 23.3008 40.7901 18.9754C40.7901 6.49623 30.1505 -3.62111 17.0253 -3.62111C3.90005 -3.62111 -6.7395 6.49474 -6.7395 18.9754C-6.7395 23.8797 -5.09082 27.1994 -2.29927 30.9026L7.43313 35.0951C8.25971 35.1503 9.08628 35.1787 9.91435 35.1787L24.7002 35.0593C25.6536 35.0593 26.6085 35.022 27.5589 34.9489L37.2928 30.7772V30.7758Z" fill="white"/>
<path d="M17.0253 -3.62111C3.90005 -3.62111 -6.7395 6.49623 -6.7395 18.9754C-6.7395 23.8797 -5.09082 27.1994 -2.29927 30.9026L4.12683 34.0269C0.956303 32.7497 -2.76478 25.8775 -2.76478 20.1571C-2.76478 13.4595 0.465432 8.03151 4.4506 8.03151C8.19107 8.03151 11.2676 12.8164 11.6302 18.9441L11.666 20.0512C11.666 22.7726 13.8727 24.9793 16.5941 24.9793C19.3155 24.9793 21.5222 22.7726 21.5222 20.0512L21.558 18.9874C21.9251 12.8403 25.1538 8.033 29.0837 8.033C33.2599 8.033 36.6453 13.4624 36.6453 20.1586C36.6453 24.854 32.5318 32.0723 30.0983 34.088L37.2928 30.7772C39.5099 27.3426 40.7901 23.3023 40.7901 18.9769C40.7901 6.49771 30.1505 -3.61962 17.0253 -3.61962V-3.62111Z" fill="#52BFD3"/>
<path d="M24.3987 13.2655C24.3062 13.2655 24.2137 13.2237 24.151 13.1446C24.0451 13.0089 24.0705 12.8134 24.2077 12.7075C26.0563 11.2796 28.1795 11.8496 28.2675 11.8734C28.4331 11.9197 28.5301 12.0913 28.4838 12.2569C28.4376 12.4225 28.266 12.5195 28.1004 12.4732C28.0705 12.4658 26.1787 11.9719 24.5882 13.1998C24.5315 13.2431 24.4643 13.2655 24.3987 13.2655Z" fill="#666666"/>
<path d="M8.7251 13.2655C8.65945 13.2655 8.59231 13.2446 8.53561 13.1998C6.94065 11.9674 5.04281 12.4687 5.02341 12.4732C4.85929 12.5195 4.68622 12.421 4.63996 12.2554C4.59371 12.0898 4.69069 11.9182 4.85631 11.8719C4.94583 11.8466 7.06896 11.2781 8.91607 12.706C9.05185 12.8119 9.07721 13.0074 8.97277 13.1431C8.9116 13.2222 8.81909 13.264 8.7251 13.264V13.2655Z" fill="#666666"/>
<path d="M15.6675 17.5759L12.7133 20.0885C12.3045 20.4361 12.391 20.9523 12.9028 21.2254L15.8569 22.795C16.2613 23.0098 16.8178 23.0098 17.2221 22.795L20.1763 21.2254C20.6881 20.9538 20.7746 20.4361 20.3658 20.0885L17.4116 17.5759C16.9595 17.191 16.1195 17.191 15.6675 17.5759Z" fill="#F6E076"/>
<path d="M25.743 19.8706C27.0466 19.8706 28.1034 18.5152 28.1034 16.8433C28.1034 15.1714 27.0466 13.816 25.743 13.816C24.4394 13.816 23.3826 15.1714 23.3826 16.8433C23.3826 18.5152 24.4394 19.8706 25.743 19.8706Z" fill="#666666"/>
<path d="M26.1368 17.3477C26.6304 17.3477 27.0305 16.7899 27.0305 16.1018C27.0305 15.4138 26.6304 14.856 26.1368 14.856C25.6432 14.856 25.2431 15.4138 25.2431 16.1018C25.2431 16.7899 25.6432 17.3477 26.1368 17.3477Z" fill="white"/>
<path d="M7.41068 19.8706C8.71427 19.8706 9.77104 18.5152 9.77104 16.8433C9.77104 15.1714 8.71427 13.816 7.41068 13.816C6.10708 13.816 5.05031 15.1714 5.05031 16.8433C5.05031 18.5152 6.10708 19.8706 7.41068 19.8706Z" fill="#666666"/>
<path d="M8.00443 17.3477C8.49802 17.3477 8.89815 16.7899 8.89815 16.1018C8.89815 15.4138 8.49802 14.856 8.00443 14.856C7.51084 14.856 7.11071 15.4138 7.11071 16.1018C7.11071 16.7899 7.51084 17.3477 8.00443 17.3477Z" fill="white"/>
<path d="M27.9512 34.4342H5.53371C1.95885 34.4342 -0.949086 31.5262 -0.949086 27.9514V5.53388C-0.949086 1.95901 1.95885 -0.948918 5.53371 -0.948918H27.9512C31.5261 -0.948918 34.434 1.95901 34.434 5.53388V27.9514C34.434 31.5262 31.5261 34.4342 27.9512 34.4342ZM5.53371 0.948923C3.00475 0.948923 0.948755 3.00641 0.948755 5.53388V27.9514C0.948755 30.4803 3.00624 32.5363 5.53371 32.5363H27.9512C30.4802 32.5363 32.5362 30.4788 32.5362 27.9514V5.53388C32.5362 3.00491 30.4787 0.948923 27.9512 0.948923H5.53371Z" fill="#52BFD3"/>
<path d="M20.7478 29.5553L16.7775 29.6478L12.7148 29.5553V28.1438L16.7313 28.0424L20.7478 28.1438V29.5553Z" fill="#666666"/>
<path d="M22.0056 31.938H20.2376C19.7706 31.938 19.3931 31.5591 19.3931 31.0936V26.4967C19.3931 26.0297 19.7721 25.6522 20.2376 25.6522H22.0056C22.8143 25.6522 23.4693 26.3072 23.4693 27.1158V30.4759C23.4693 31.2845 22.8143 31.9395 22.0056 31.9395V31.938Z" fill="#666666"/>
<path d="M11.4794 31.938H13.2474C13.7144 31.938 14.0919 31.5591 14.0919 31.0936V26.4967C14.0919 26.0297 13.713 25.6522 13.2474 25.6522H11.4794C10.6707 25.6522 10.0157 26.3072 10.0157 27.1158V30.4759C10.0157 31.2845 10.6707 31.9395 11.4794 31.9395V31.938Z" fill="#666666"/>
<path d="M20.7478 29.5553L16.7775 29.6478L12.7148 29.5553V28.1438L16.7313 28.0424L20.7478 28.1438V29.5553Z" fill="#666666"/>
<path d="M22.0056 31.938H20.2376C19.7706 31.938 19.3931 31.5591 19.3931 31.0936V26.4967C19.3931 26.0297 19.7721 25.6522 20.2376 25.6522H22.0056C22.8143 25.6522 23.4693 26.3072 23.4693 27.1158V30.4759C23.4693 31.2845 22.8143 31.9395 22.0056 31.9395V31.938Z" fill="#666666"/>
<path d="M11.4794 31.938H13.2474C13.7144 31.938 14.0919 31.5591 14.0919 31.0936V26.4967C14.0919 26.0297 13.713 25.6522 13.2474 25.6522H11.4794C10.6707 25.6522 10.0157 26.3072 10.0157 27.1158V30.4759C10.0157 31.2845 10.6707 31.9395 11.4794 31.9395V31.938Z" fill="#666666"/>
</g>
</svg>
