<svg width="259" height="433" viewBox="0 0 259 433" fill="none" xmlns="http://www.w3.org/2000/svg">
<path d="M161.78 422.571C159.886 422.775 148.772 423.641 111.174 426.512C90.9223 428.059 64.2335 430.098 51.8657 431.042C24.3616 433.144 22.0181 433.26 17.5817 432.74C13.3961 432.25 10.197 431.099 7.35429 429.059C1.55946 424.902 -0.754209 418.14 0.213353 408.188C0.586424 404.351 1.34372 400.09 11.9404 342.204C17.714 310.665 31.2654 236.619 42.0545 177.657C52.8437 118.695 62.4656 66.1179 63.4364 60.8184C65.5893 49.0672 66.1833 46.2667 67.2934 42.6325C68.6647 38.1432 70.1356 35.0449 72.5371 31.5872C77.5326 24.3947 84.3557 19.7319 93.6272 17.1747C96.9713 16.2524 106.72 14.9255 130.933 12.0969C143.514 10.6273 169.304 7.5998 188.246 5.3692C227.105 0.792912 229.084 0.564799 232.313 0.288746C240.494 -0.410672 245.205 0.12498 249.879 2.286C254.963 4.63602 258.255 9.78655 258.808 16.2549C259.039 18.9635 259.04 19.8591 258.814 22.7684C258.512 26.6434 261.404 8.83151 222.859 244.15C218.054 273.484 212.639 306.547 210.827 317.623C205.373 350.947 201.098 377.03 200.313 381.774C198.182 394.641 196.298 400.359 192.222 406.327C187.167 413.731 180.239 418.541 171.144 420.962C169.403 421.426 164.364 422.291 161.78 422.571ZM186.288 27.578C188.863 26.6632 191.03 24.9656 192.604 22.6281C194.217 20.2323 194.722 18.2235 194.322 15.7996C194.132 14.6463 193.994 14.3016 193.385 13.4622C192.063 11.6372 190.155 10.8161 187.506 10.9324C186.678 10.9688 180.073 11.6959 172.829 12.5482C165.585 13.4005 155.895 14.5399 151.294 15.0802C142.069 16.1638 141.217 16.3394 139.146 17.5835C134.868 20.1536 132.478 24.6521 133.317 28.5561C133.941 31.4645 136.239 33.185 139.506 33.1906C140.149 33.1918 149.729 32.1449 160.794 30.8643C171.859 29.5837 181.433 28.4761 182.069 28.4031C184.525 28.1214 185.042 28.0202 186.288 27.578Z" fill="black"/>
</svg>
