<svg width="754" height="214" viewBox="0 0 754 214" fill="none" xmlns="http://www.w3.org/2000/svg">
<path d="M7.47268 46.6802C8.2798 44.8834 10.0662 43.7275 12.036 43.7275H411.763C415.392 43.7275 417.813 47.4698 416.326 50.7799L409.298 66.425C408.491 68.2219 406.705 69.3778 404.735 69.3778H5.00828C1.37957 69.3778 -1.04193 65.6355 0.444943 62.3254L7.47268 46.6802Z" fill="#F6E076"/>
<path d="M13.4782 124.673C14.412 123.319 15.9516 122.511 17.5962 122.511H636.083C640.114 122.511 642.49 127.035 640.201 130.354L629.409 145.999C628.475 147.353 626.936 148.161 625.291 148.161H6.80476C2.7733 148.161 0.39779 143.637 2.68681 140.318L13.4782 124.673Z" fill="#F6E076"/>
<path d="M37.5427 20.6806H52.8906V27.1189H37.5427V20.6806ZM37.5427 30.8258H53.0207V36.939H37.5427V30.8258ZM58.4835 25.0379H83.2612V32.0615H58.4835V25.0379ZM37.3476 40.906H52.8906V47.0842H37.3476V40.906ZM49.2488 20.6806H56.6626V53.6526C56.6626 55.3434 56.4675 56.7092 56.0773 57.7497C55.7304 58.7902 55.0151 59.614 53.9312 60.221C52.8906 60.7846 51.6116 61.1314 50.0942 61.2615C48.6201 61.4349 46.8859 61.5216 44.8915 61.5216C44.7615 60.4811 44.5013 59.2888 44.1111 57.9448C43.7209 56.6008 43.2874 55.4302 42.8104 54.433C43.9377 54.4763 45.0216 54.5197 46.0621 54.563C47.146 54.563 47.8831 54.563 48.2733 54.563C48.9236 54.5197 49.2488 54.1728 49.2488 53.5225V20.6806ZM80.0096 25.0379H87.5534C87.5534 25.0379 87.5318 25.2546 87.4884 25.6882C87.4884 26.0784 87.4884 26.512 87.4884 26.9889C87.4884 27.4658 87.4884 27.8777 87.4884 28.2245C87.315 33.2104 87.1416 37.4593 86.9681 40.9711C86.8381 44.4829 86.643 47.4094 86.3828 49.7506C86.1661 52.0484 85.9059 53.8694 85.6024 55.2134C85.299 56.5574 84.9088 57.5546 84.4318 58.2049C83.7382 59.1154 83.0228 59.7657 82.2857 60.1559C81.5921 60.5461 80.7466 60.8279 79.7494 61.0014C78.8823 61.1748 77.7984 61.2615 76.4978 61.2615C75.1971 61.3048 73.788 61.3048 72.2706 61.2615C72.2272 60.1342 72.0105 58.8769 71.6203 57.4896C71.2734 56.1022 70.8182 54.9099 70.2546 53.9127C71.4252 53.9994 72.4874 54.0645 73.4412 54.1078C74.4384 54.1078 75.2188 54.1078 75.7824 54.1078C76.2593 54.1078 76.6495 54.0645 76.953 53.9777C77.2565 53.8477 77.56 53.5875 77.8635 53.1973C78.2537 52.6771 78.5788 51.5065 78.839 49.6855C79.0991 47.8646 79.3159 45.0898 79.4893 41.3613C79.7061 37.6327 79.8795 32.6685 80.0096 26.4686V25.0379ZM34.226 20.6806H41.5748V34.988C41.5748 37.0257 41.4881 39.2368 41.3147 41.6214C41.1413 44.006 40.8378 46.4122 40.4042 48.8401C39.9707 51.2247 39.3203 53.5225 38.4532 55.7337C37.5861 57.9881 36.4589 60.0259 35.0715 61.8468C34.6379 61.4132 34.0309 60.9146 33.2505 60.351C32.5135 59.8308 31.7331 59.3105 30.9093 58.7902C30.0856 58.3133 29.3702 57.9448 28.7632 57.6847C30.4541 55.4735 31.6897 53.0673 32.4701 50.4659C33.2505 47.8212 33.7274 45.1549 33.9009 42.4668C34.1176 39.7354 34.226 37.2208 34.226 34.923V20.6806ZM37.6078 6.11314H57.8982V12.6165H37.6078V6.11314ZM63.6862 6.11314H88.3989V12.6165H63.6862V6.11314ZM37.9329 -1.61015e-06L45.3468 1.951C44.523 4.2922 43.5041 6.61173 42.2902 8.90958C41.0762 11.2074 39.7756 13.3535 38.3882 15.3479C37.0008 17.3422 35.6134 19.0981 34.226 20.6156C33.7491 20.182 33.1205 19.7051 32.3401 19.1849C31.5597 18.6646 30.7359 18.1443 29.8688 17.6241C29.045 17.1038 28.308 16.6919 27.6577 16.3884C29.8254 14.4374 31.7981 11.9878 33.5757 9.03964C35.3966 6.09146 36.8491 3.07825 37.9329 -1.61015e-06ZM64.1414 -1.61015e-06L71.7503 1.951C70.4497 5.46281 68.7588 8.84455 66.6777 12.0962C64.5966 15.3479 62.4289 18.0359 60.1744 20.1604C59.6975 19.7268 59.0471 19.2282 58.2234 18.6646C57.443 18.101 56.6192 17.559 55.7521 17.0388C54.9283 16.4751 54.213 16.0416 53.606 15.7381C55.8605 13.8738 57.9199 11.5543 59.7842 8.77951C61.6485 5.9614 63.1009 3.03489 64.1414 -1.61015e-06ZM40.2091 11.0557L46.5824 8.77951C47.5362 10.1235 48.49 11.641 49.4439 13.3319C50.3977 14.9794 51.0697 16.4101 51.4599 17.6241L44.6964 20.2254C44.3496 19.0114 43.7209 17.5373 42.8104 15.8031C41.9433 14.0689 41.0762 12.4864 40.2091 11.0557ZM68.4987 11.5109L74.937 9.16971C76.0642 10.4704 77.1698 11.9445 78.2537 13.592C79.3809 15.1961 80.2047 16.6269 80.7249 17.8842L73.8964 20.4855C73.4629 19.2716 72.7258 17.8192 71.6853 16.1283C70.6448 14.3941 69.5825 12.8549 68.4987 11.5109ZM65.7022 18.8597H72.9209V31.086C72.9209 33.6006 72.7692 36.1803 72.4657 38.825C72.2056 41.4263 71.6636 44.0493 70.8399 46.694C70.0161 49.3387 68.8238 51.9184 67.263 54.433C65.7456 56.9476 63.7295 59.3322 61.2149 61.5867C60.5646 60.8063 59.7191 59.9608 58.6786 59.0504C57.6381 58.1399 56.6626 57.3812 55.7521 56.7742C57.9632 54.7365 59.7191 52.612 61.0198 50.4009C62.3638 48.1898 63.361 45.9786 64.0113 43.7675C64.705 41.513 65.1603 39.3019 65.377 37.1341C65.5938 34.9663 65.7022 32.9286 65.7022 31.0209V18.8597ZM118.249 49.4904C118.249 48.6667 118.249 47.3227 118.249 45.4584C118.249 43.5507 118.249 41.3613 118.249 38.89C118.249 36.3754 118.249 33.7524 118.249 31.0209C118.249 28.2895 118.249 25.6665 118.249 23.1519C118.249 20.5939 118.249 18.3394 118.249 16.3884C118.249 14.4374 118.249 13.0067 118.249 12.0962C118.249 10.969 118.184 9.6683 118.054 8.19421C117.967 6.72012 117.816 5.41945 117.599 4.29221H127.744C127.614 5.41945 127.484 6.67676 127.354 8.06414C127.224 9.40817 127.159 10.7522 127.159 12.0962C127.159 13.3102 127.159 14.9577 127.159 17.0388C127.159 19.1198 127.159 21.4394 127.159 23.9973C127.159 26.512 127.159 29.0916 127.159 31.7363C127.159 34.3377 127.159 36.8523 127.159 39.2802C127.159 41.7081 127.159 43.8325 127.159 45.6535C127.159 47.431 127.159 48.71 127.159 49.4904C127.159 50.0974 127.18 50.9645 127.224 52.0918C127.267 53.1757 127.354 54.3029 127.484 55.4735C127.614 56.6441 127.701 57.6847 127.744 58.5951H117.599C117.772 57.2945 117.924 55.777 118.054 54.0428C118.184 52.3086 118.249 50.7911 118.249 49.4904ZM125.208 21.1359C127.376 21.6995 129.803 22.4365 132.492 23.347C135.18 24.2141 137.889 25.1463 140.621 26.1434C143.352 27.1406 145.91 28.1378 148.295 29.135C150.723 30.0888 152.739 30.9776 154.343 31.8013L150.636 40.776C148.815 39.8221 146.799 38.8683 144.588 37.9145C142.377 36.9173 140.122 35.9635 137.824 35.053C135.57 34.1426 133.337 33.2971 131.126 32.5167C128.958 31.7363 126.985 31.0426 125.208 30.4356V21.1359ZM182.047 53.1323C182.437 52.3086 182.676 51.5932 182.762 50.9862C182.849 50.3792 182.892 49.6855 182.892 48.9051C182.892 48.0814 182.892 46.8241 182.892 45.1332C182.892 43.4423 182.892 41.4913 182.892 39.2802C182.892 37.0257 182.892 34.6628 182.892 32.1915C182.892 29.7203 182.892 27.2924 182.892 24.9078C182.892 22.5232 182.892 20.3555 182.892 18.4045C182.892 16.4535 182.892 14.871 182.892 13.657C182.892 12.8333 182.849 11.9662 182.762 11.0557C182.719 10.1452 182.632 9.2781 182.502 8.45434C182.416 7.58723 182.307 6.85019 182.177 6.24321H192.387C192.214 7.50052 192.062 8.73616 191.932 9.95011C191.802 11.1641 191.737 12.3997 191.737 13.657C191.737 14.6976 191.737 15.9982 191.737 17.559C191.737 19.0765 191.737 20.7673 191.737 22.6316C191.737 24.4959 191.737 26.4253 191.737 28.4196C191.737 30.414 191.737 32.3866 191.737 34.3377C191.737 36.2887 191.737 38.1313 191.737 39.8655C191.737 41.5997 191.737 43.1172 191.737 44.4178C191.737 45.7185 191.737 46.7374 191.737 47.4744C194.382 46.694 197.2 45.6318 200.191 44.2878C203.226 42.9004 206.261 41.2746 209.296 39.4103C212.374 37.5026 215.257 35.4215 217.945 33.1671C220.677 30.9126 223.083 28.5063 225.164 25.9483L229.782 33.2971C225.359 38.6299 219.875 43.2472 213.328 47.1492C206.825 51.0079 199.736 54.1945 192.062 56.7092C191.629 56.8826 191.065 57.0994 190.371 57.3595C189.678 57.6196 188.962 57.9881 188.225 58.4651L182.047 53.1323ZM283.369 3.3167C283.326 3.66355 283.261 4.22717 283.174 5.00757C283.131 5.74462 283.087 6.50334 283.044 7.28374C283.001 8.02079 282.957 8.56273 282.914 8.90958C282.871 9.77669 282.849 10.9473 282.849 12.4214C282.849 13.8521 282.849 15.4563 282.849 17.2339C282.849 19.0114 282.849 20.8107 282.849 22.6316C282.892 24.4092 282.914 26.1001 282.914 27.7042C282.957 29.265 282.979 30.5657 282.979 31.6062L274.85 28.8748C274.85 28.0511 274.85 26.9672 274.85 25.6232C274.85 24.2358 274.85 22.74 274.85 21.1359C274.85 19.4884 274.828 17.8625 274.785 16.2584C274.785 14.6542 274.763 13.2018 274.72 11.9011C274.676 10.6004 274.633 9.62495 274.59 8.97461C274.503 7.63059 274.394 6.45999 274.264 5.46281C274.134 4.42227 274.026 3.7069 273.939 3.3167H283.369ZM246.625 11.3808C248.533 11.3808 250.701 11.3592 253.129 11.3158C255.556 11.2725 258.093 11.2291 260.737 11.1857C263.382 11.1424 265.983 11.099 268.541 11.0557C271.099 11.0123 273.506 10.9906 275.76 10.9906C278.015 10.9473 279.966 10.9256 281.613 10.9256C283.261 10.9256 285.06 10.9256 287.011 10.9256C288.962 10.8823 290.891 10.8606 292.799 10.8606C294.707 10.8606 296.441 10.8606 298.002 10.8606C299.606 10.8606 300.841 10.8606 301.709 10.8606L301.643 18.5345C299.606 18.4478 296.918 18.3828 293.579 18.3394C290.241 18.2527 286.166 18.2094 281.353 18.2094C278.405 18.2094 275.413 18.2527 272.378 18.3394C269.344 18.3828 266.33 18.4478 263.339 18.5345C260.347 18.6212 257.464 18.7296 254.689 18.8597C251.915 18.9464 249.292 19.0765 246.82 19.2499L246.625 11.3808ZM281.808 30.6307C281.808 34.1859 281.375 37.1341 280.508 39.4753C279.684 41.8165 278.427 43.5941 276.736 44.808C275.045 45.9786 272.942 46.5639 270.427 46.5639C269.213 46.5639 267.935 46.3038 266.59 45.7835C265.29 45.2633 264.076 44.5045 262.949 43.5074C261.821 42.5102 260.911 41.2746 260.217 39.8005C259.567 38.3264 259.242 36.5921 259.242 34.5978C259.242 32.1265 259.827 30.0021 260.998 28.2245C262.168 26.4036 263.729 24.9945 265.68 23.9973C267.674 22.9568 269.864 22.4365 272.248 22.4365C275.11 22.4365 277.494 23.0869 279.402 24.3875C281.353 25.6448 282.805 27.3574 283.759 29.5252C284.756 31.693 285.255 34.1426 285.255 36.874C285.255 38.9984 284.908 41.2095 284.215 43.5074C283.521 45.8052 282.372 48.0597 280.768 50.2708C279.207 52.4386 277.083 54.4113 274.394 56.1889C271.75 57.9665 268.433 59.4189 264.444 60.5461L257.486 53.6526C260.261 53.089 262.84 52.3519 265.225 51.4414C267.609 50.531 269.69 49.3821 271.468 47.9947C273.289 46.6073 274.698 44.8947 275.695 42.857C276.736 40.8193 277.256 38.3697 277.256 35.5083C277.256 33.4272 276.736 31.8664 275.695 30.8258C274.698 29.7853 273.484 29.265 272.053 29.265C271.23 29.265 270.427 29.4601 269.647 29.8503C268.867 30.2405 268.238 30.8258 267.761 31.6062C267.284 32.3866 267.046 33.3405 267.046 34.4677C267.046 35.9418 267.544 37.1341 268.541 38.0446C269.582 38.9117 270.753 39.3452 272.053 39.3452C273.094 39.3452 274.004 39.0201 274.785 38.3697C275.608 37.7194 276.15 36.6355 276.411 35.1181C276.671 33.6006 276.454 31.5629 275.76 29.0049L281.808 30.6307ZM326.746 6.17818C327.657 6.30824 328.632 6.39495 329.673 6.43831C330.713 6.48167 331.711 6.50334 332.664 6.50334C333.358 6.50334 334.399 6.50334 335.786 6.50334C337.173 6.45999 338.734 6.41663 340.468 6.37327C342.246 6.32992 344.002 6.28656 345.736 6.24321C347.47 6.19985 349.031 6.1565 350.419 6.11314C351.849 6.02643 352.955 5.9614 353.735 5.91804C355.079 5.78797 356.142 5.67959 356.922 5.59287C357.702 5.46281 358.288 5.33274 358.678 5.20268L362.905 10.9906C362.168 11.4676 361.409 11.9445 360.629 12.4214C359.848 12.8983 359.09 13.4186 358.353 13.9822C357.486 14.5892 356.445 15.3912 355.231 16.3884C354.017 17.3422 352.716 18.3611 351.329 19.445C349.985 20.5289 348.663 21.5911 347.362 22.6316C346.105 23.6722 344.956 24.6043 343.915 25.4281C344.999 25.1679 346.04 24.9945 347.037 24.9078C348.034 24.7777 349.053 24.7127 350.093 24.7127C353.779 24.7127 357.074 25.4281 359.978 26.8588C362.927 28.2895 365.246 30.2405 366.937 32.7118C368.671 35.1397 369.538 37.9362 369.538 41.1011C369.538 44.5262 368.671 47.6261 366.937 50.4009C365.203 53.1757 362.58 55.3868 359.068 57.0343C355.6 58.6818 351.242 59.5056 345.996 59.5056C343.005 59.5056 340.295 59.072 337.867 58.2049C335.483 57.3378 333.597 56.1022 332.209 54.498C330.822 52.8939 330.128 51.0079 330.128 48.8401C330.128 47.0625 330.605 45.415 331.559 43.8976C332.556 42.3368 333.922 41.0795 335.656 40.1256C337.434 39.1718 339.471 38.6949 341.769 38.6949C344.761 38.6949 347.275 39.3019 349.313 40.5158C351.394 41.6864 352.977 43.2689 354.06 45.2633C355.188 47.2576 355.773 49.4471 355.816 51.8316L348.207 52.8722C348.164 50.4876 347.557 48.58 346.386 47.1492C345.259 45.6751 343.742 44.9381 341.834 44.9381C340.62 44.9381 339.645 45.2633 338.908 45.9136C338.171 46.5206 337.802 47.2359 337.802 48.0597C337.802 49.2737 338.409 50.2492 339.623 50.9862C340.837 51.7233 342.419 52.0918 344.37 52.0918C348.056 52.0918 351.134 51.6582 353.605 50.7911C356.076 49.8806 357.919 48.6017 359.133 46.9541C360.39 45.2633 361.019 43.2689 361.019 40.9711C361.019 39.0201 360.412 37.3075 359.198 35.8334C358.027 34.3593 356.423 33.2104 354.386 32.3866C352.348 31.5629 350.05 31.151 347.492 31.151C344.977 31.151 342.68 31.4762 340.599 32.1265C338.517 32.7335 336.545 33.6223 334.68 34.7929C332.86 35.9201 331.06 37.3075 329.283 38.955C327.548 40.5592 325.814 42.3584 324.08 44.3528L318.162 38.2397C319.333 37.2858 320.655 36.2236 322.129 35.053C323.603 33.8391 325.099 32.5817 326.616 31.2811C328.177 29.9804 329.63 28.7665 330.974 27.6392C332.361 26.4686 333.532 25.4931 334.485 24.7127C335.396 23.9757 336.458 23.1085 337.672 22.1114C338.886 21.1142 340.143 20.0953 341.444 19.0548C342.745 17.9709 343.98 16.952 345.151 15.9982C346.321 15.001 347.297 14.1556 348.077 13.4619C347.427 13.4619 346.582 13.4836 345.541 13.527C344.501 13.5703 343.352 13.6137 342.094 13.657C340.88 13.7004 339.645 13.7437 338.387 13.7871C337.173 13.8304 336.025 13.8955 334.941 13.9822C333.9 14.0255 333.033 14.0689 332.339 14.1123C331.472 14.1556 330.562 14.2206 329.608 14.3074C328.654 14.3941 327.787 14.5025 327.007 14.6325L326.746 6.17818ZM40.6643 79.756L48.0782 82.0322C46.8208 85.674 45.3034 89.3593 43.5258 93.0878C41.7916 96.7731 39.8839 100.285 37.8029 103.623C35.7652 106.918 33.6407 109.823 31.4296 112.338C31.1695 111.687 30.7793 110.864 30.259 109.866C29.7821 108.826 29.2618 107.785 28.6982 106.745C28.1346 105.704 27.6143 104.859 27.1374 104.209C29.0017 102.214 30.7576 99.9164 32.4051 97.315C34.096 94.6703 35.6351 91.8522 37.0225 88.8607C38.4532 85.8691 39.6672 82.8342 40.6643 79.756ZM35.3966 97.7703L42.8104 90.3564V90.4215V140.497H35.3966V97.7703ZM63.1009 79.821H70.7098V140.107H63.1009V79.821ZM46.5824 91.1368H88.7241V98.5507H46.5824V91.1368ZM54.5165 122.678H79.4893V129.637H54.5165V122.678ZM73.5062 95.299C74.6335 98.9409 76.0859 102.626 77.8635 106.355C79.641 110.04 81.6137 113.487 83.7815 116.695C85.9493 119.86 88.2038 122.548 90.545 124.759C89.6345 125.409 88.594 126.32 87.4234 127.491C86.2961 128.661 85.3857 129.767 84.692 130.807C82.3508 128.206 80.118 125.084 77.9935 121.442C75.8691 117.801 73.9615 113.877 72.2706 109.671C70.5797 105.423 69.1273 101.152 67.9134 96.8598L73.5062 95.299ZM60.6946 94.6487L66.3526 96.2095C65.1386 100.718 63.6428 105.141 61.8652 109.476C60.0877 113.812 58.0933 117.822 55.8822 121.507C53.671 125.193 51.2865 128.358 48.7285 131.002C48.2949 130.395 47.753 129.723 47.1027 128.986C46.4523 128.206 45.7586 127.469 45.0216 126.775C44.3279 126.081 43.6992 125.518 43.1356 125.084C45.6502 122.873 48.0131 120.142 50.2243 116.89C52.4788 113.595 54.4948 110.04 56.2724 106.225C58.0933 102.366 59.5674 98.5073 60.6946 94.6487ZM102.706 93.0878H152.587V101.087H102.706V93.0878ZM149.335 93.0878H157.464C157.464 93.0878 157.464 93.3263 157.464 93.8032C157.464 94.2801 157.443 94.8221 157.399 95.4291C157.399 95.9927 157.378 96.4479 157.334 96.7948C156.987 103.298 156.641 108.869 156.294 113.508C155.947 118.104 155.557 121.919 155.123 124.954C154.733 127.989 154.256 130.395 153.692 132.173C153.172 133.951 152.544 135.273 151.806 136.14C150.809 137.397 149.79 138.264 148.75 138.741C147.753 139.218 146.539 139.543 145.108 139.717C143.937 139.89 142.398 139.977 140.491 139.977C138.583 139.977 136.632 139.955 134.638 139.912C134.594 138.741 134.312 137.376 133.792 135.815C133.315 134.254 132.708 132.932 131.971 131.848C134.052 132.021 135.96 132.13 137.694 132.173C139.472 132.173 140.794 132.173 141.661 132.173C142.312 132.173 142.875 132.108 143.352 131.978C143.829 131.848 144.263 131.566 144.653 131.132C145.216 130.569 145.737 129.485 146.214 127.881C146.691 126.233 147.102 123.957 147.449 121.052C147.839 118.147 148.186 114.527 148.49 110.192C148.793 105.813 149.075 100.632 149.335 94.6487V93.0878ZM122.672 79.6259H130.996V93.0878C130.996 96.036 130.844 99.1793 130.541 102.518C130.28 105.856 129.717 109.259 128.85 112.728C127.983 116.153 126.66 119.556 124.883 122.938C123.105 126.32 120.742 129.55 117.794 132.628C114.889 135.706 111.226 138.481 106.803 140.952C106.37 140.302 105.784 139.565 105.047 138.741C104.354 137.918 103.595 137.137 102.771 136.4C101.991 135.663 101.276 135.056 100.625 134.579C104.701 132.411 108.061 129.983 110.705 127.295C113.393 124.607 115.54 121.811 117.144 118.906C118.748 115.958 119.94 112.988 120.72 109.997C121.544 106.962 122.065 104.013 122.281 101.152C122.541 98.2472 122.672 95.5591 122.672 93.0878V79.6259ZM198.956 83.8531C198.782 84.6769 198.587 85.5873 198.37 86.5845C198.154 87.5383 197.959 88.4271 197.785 89.2509C197.612 90.2047 197.395 91.2886 197.135 92.5025C196.875 93.6731 196.615 94.8654 196.354 96.0794C196.138 97.25 195.899 98.3989 195.639 99.5262C195.205 101.39 194.664 103.558 194.013 106.03C193.363 108.501 192.604 111.167 191.737 114.029C190.87 116.847 189.894 119.687 188.81 122.548C187.727 125.409 186.578 128.206 185.364 130.937C184.15 133.625 182.849 136.053 181.462 138.221L173.007 134.839C174.525 132.802 175.934 130.525 177.235 128.011C178.579 125.453 179.793 122.851 180.876 120.207C181.96 117.519 182.914 114.874 183.738 112.273C184.605 109.628 185.342 107.178 185.949 104.924C186.599 102.669 187.098 100.74 187.445 99.136C188.052 96.1878 188.529 93.348 188.876 90.6166C189.222 87.8852 189.352 85.3055 189.266 82.8776L198.956 83.8531ZM221.327 90.4215C222.368 91.8522 223.43 93.6081 224.514 95.6892C225.641 97.7269 226.747 99.8947 227.831 102.193C228.914 104.49 229.89 106.702 230.757 108.826C231.624 110.95 232.296 112.793 232.773 114.354L224.514 118.126C224.124 116.305 223.538 114.289 222.758 112.078C222.021 109.866 221.154 107.634 220.157 105.379C219.159 103.081 218.097 100.914 216.97 98.8758C215.886 96.8381 214.759 95.1256 213.588 93.7382L221.327 90.4215ZM172.552 97.185C173.723 97.2717 174.872 97.315 175.999 97.315C177.17 97.2717 178.34 97.2283 179.511 97.185C180.595 97.1416 181.895 97.0766 183.413 96.9899C184.93 96.8598 186.534 96.7297 188.225 96.5997C189.959 96.4696 191.694 96.3395 193.428 96.2095C195.162 96.036 196.766 95.906 198.24 95.8193C199.714 95.7325 200.928 95.6892 201.882 95.6892C204.223 95.6892 206.261 96.0794 207.995 96.8598C209.73 97.5968 211.095 98.8758 212.092 100.697C213.133 102.518 213.653 104.989 213.653 108.111C213.653 110.669 213.545 113.443 213.328 116.435C213.111 119.426 212.721 122.288 212.157 125.019C211.637 127.751 210.9 130.07 209.946 131.978C208.906 134.232 207.475 135.793 205.654 136.66C203.877 137.527 201.752 137.961 199.281 137.961C198.067 137.961 196.745 137.853 195.314 137.636C193.883 137.462 192.604 137.267 191.477 137.05L190.111 128.466C190.935 128.683 191.845 128.9 192.843 129.116C193.883 129.333 194.859 129.507 195.769 129.637C196.723 129.767 197.482 129.832 198.045 129.832C199.129 129.832 200.083 129.637 200.907 129.246C201.73 128.813 202.402 128.076 202.923 127.035C203.53 125.778 204.028 124.152 204.419 122.158C204.809 120.163 205.091 118.017 205.264 115.719C205.481 113.378 205.589 111.145 205.589 109.021C205.589 107.287 205.329 106.008 204.809 105.184C204.332 104.36 203.616 103.818 202.663 103.558C201.752 103.255 200.625 103.103 199.281 103.103C198.284 103.103 196.94 103.19 195.249 103.363C193.558 103.493 191.737 103.667 189.786 103.883C187.878 104.057 186.101 104.252 184.453 104.469C182.806 104.685 181.527 104.837 180.616 104.924C179.662 105.097 178.449 105.292 176.974 105.509C175.544 105.683 174.33 105.856 173.333 106.03L172.552 97.185ZM220.157 81.3818C220.72 82.1622 221.306 83.0944 221.913 84.1783C222.563 85.2622 223.192 86.3461 223.798 87.4299C224.405 88.5138 224.926 89.4677 225.359 90.2914L220.092 92.5676C219.658 91.6571 219.159 90.6599 218.596 89.576C218.032 88.4922 217.447 87.4083 216.84 86.3244C216.233 85.2405 215.626 84.3083 215.019 83.5279L220.157 81.3818ZM227.896 78.4553C228.459 79.2791 229.066 80.2329 229.717 81.3168C230.367 82.4007 230.996 83.4846 231.602 84.5685C232.253 85.6524 232.751 86.5628 233.098 87.2999L227.961 89.511C227.267 88.167 226.443 86.6495 225.489 84.9587C224.536 83.2244 223.603 81.7504 222.693 80.5364L227.896 78.4553ZM246.3 92.1774C247.687 92.3508 249.162 92.4809 250.722 92.5676C252.326 92.6109 253.736 92.6326 254.949 92.6326C257.638 92.6326 260.347 92.4809 263.079 92.1774C265.853 91.8739 268.52 91.4837 271.078 91.0068C273.636 90.4865 275.955 89.9012 278.036 89.2509L278.296 96.7948C276.432 97.2717 274.199 97.7703 271.598 98.2905C269.04 98.7674 266.33 99.1793 263.469 99.5262C260.607 99.8296 257.789 99.9814 255.015 99.9814C253.714 99.9814 252.392 99.9597 251.047 99.9164C249.703 99.873 248.316 99.808 246.885 99.7213L246.3 92.1774ZM271.598 82.4224C271.338 83.5063 270.991 84.9153 270.558 86.6495C270.124 88.3838 269.625 90.2047 269.062 92.1123C268.541 94.02 267.978 95.906 267.371 97.7703C266.417 100.892 265.16 104.209 263.599 107.72C262.038 111.232 260.347 114.657 258.526 117.996C256.705 121.334 254.863 124.304 252.998 126.905L245.129 122.873C246.604 121.052 248.056 119.036 249.487 116.825C250.917 114.614 252.261 112.338 253.519 109.997C254.776 107.655 255.903 105.401 256.9 103.233C257.941 101.022 258.765 99.0276 259.372 97.25C260.196 94.9521 260.911 92.3942 261.518 89.576C262.168 86.7146 262.537 84.0265 262.623 81.5119L271.598 82.4224ZM286.816 102.648C286.729 104.035 286.686 105.423 286.686 106.81C286.729 108.154 286.773 109.541 286.816 110.972C286.859 111.969 286.903 113.248 286.946 114.809C287.033 116.326 287.119 117.952 287.206 119.687C287.293 121.377 287.358 123.003 287.401 124.564C287.488 126.081 287.531 127.295 287.531 128.206C287.531 130.2 287.119 132.021 286.296 133.669C285.472 135.273 284.15 136.552 282.329 137.506C280.551 138.46 278.101 138.936 274.98 138.936C272.292 138.936 269.864 138.525 267.696 137.701C265.528 136.92 263.794 135.75 262.493 134.189C261.193 132.585 260.542 130.59 260.542 128.206C260.542 126.081 261.106 124.174 262.233 122.483C263.36 120.749 264.986 119.405 267.111 118.451C269.279 117.454 271.88 116.955 274.915 116.955C278.73 116.955 282.242 117.497 285.45 118.581C288.658 119.621 291.542 120.966 294.1 122.613C296.658 124.261 298.847 125.908 300.668 127.556L296.311 134.514C295.14 133.474 293.796 132.303 292.279 131.002C290.805 129.702 289.135 128.488 287.271 127.36C285.45 126.233 283.456 125.301 281.288 124.564C279.164 123.827 276.866 123.458 274.394 123.458C272.53 123.458 271.034 123.827 269.907 124.564C268.78 125.301 268.216 126.255 268.216 127.426C268.216 128.639 268.693 129.615 269.647 130.352C270.644 131.089 272.032 131.458 273.809 131.458C275.283 131.458 276.454 131.219 277.321 130.742C278.188 130.222 278.795 129.507 279.142 128.596C279.489 127.642 279.662 126.58 279.662 125.409C279.662 124.412 279.619 123.003 279.532 121.182C279.445 119.361 279.337 117.345 279.207 115.134C279.12 112.923 279.034 110.712 278.947 108.501C278.86 106.29 278.773 104.339 278.687 102.648H286.816ZM298.002 106.095C296.744 105.054 295.184 103.948 293.319 102.778C291.455 101.607 289.526 100.502 287.531 99.4611C285.58 98.3772 283.868 97.5101 282.394 96.8598L286.556 90.4215C287.726 90.9417 289.049 91.5921 290.523 92.3725C292.04 93.1095 293.558 93.8899 295.075 94.7137C296.636 95.5374 298.067 96.3612 299.367 97.185C300.711 97.9654 301.795 98.659 302.619 99.266L298.002 106.095ZM329.348 88.2754C329.174 89.0558 329.023 89.9446 328.893 90.9417C328.806 91.9389 328.719 92.9144 328.632 93.8683C328.589 94.8221 328.567 95.6025 328.567 96.2095C328.524 97.6402 328.502 99.1143 328.502 100.632C328.546 102.149 328.589 103.71 328.632 105.314C328.719 106.875 328.827 108.436 328.958 109.997C329.261 113.118 329.695 115.871 330.258 118.256C330.822 120.64 331.559 122.505 332.469 123.849C333.38 125.149 334.529 125.8 335.916 125.8C336.653 125.8 337.369 125.388 338.062 124.564C338.799 123.74 339.45 122.678 340.013 121.377C340.62 120.033 341.14 118.624 341.574 117.15C342.051 115.676 342.463 114.289 342.81 112.988L349.313 120.922C347.882 124.694 346.452 127.707 345.021 129.962C343.633 132.173 342.181 133.777 340.664 134.774C339.146 135.728 337.499 136.205 335.721 136.205C333.38 136.205 331.147 135.425 329.023 133.864C326.941 132.303 325.164 129.788 323.69 126.32C322.216 122.808 321.175 118.147 320.568 112.338C320.351 110.343 320.178 108.241 320.048 106.03C319.961 103.818 319.896 101.716 319.853 99.7213C319.853 97.7269 319.853 96.0794 319.853 94.7787C319.853 93.8683 319.809 92.7844 319.723 91.527C319.636 90.2697 319.506 89.1425 319.333 88.1453L329.348 88.2754ZM361.864 89.7711C363.078 91.2452 364.249 93.0445 365.376 95.1689C366.504 97.2933 367.544 99.5695 368.498 101.997C369.452 104.425 370.297 106.918 371.034 109.476C371.771 111.991 372.357 114.462 372.79 116.89C373.267 119.275 373.57 121.464 373.701 123.458L365.116 126.775C364.899 124.13 364.509 121.247 363.946 118.126C363.382 115.004 362.623 111.861 361.669 108.696C360.716 105.531 359.567 102.539 358.223 99.7213C356.922 96.9031 355.383 94.4752 353.605 92.4375L361.864 89.7711ZM411.03 81.0567H420.004C419.918 82.8776 419.766 85.2188 419.549 88.0803C419.332 90.9417 418.92 94.1284 418.313 97.6402C417.75 101.109 416.883 104.751 415.712 108.566C414.542 112.381 412.937 116.196 410.9 120.012C408.905 123.784 406.347 127.404 403.226 130.872C400.147 134.297 396.397 137.354 391.975 140.042C391.281 139.045 390.327 137.983 389.113 136.855C387.943 135.728 386.707 134.709 385.407 133.799C389.742 131.371 393.384 128.596 396.332 125.474C399.28 122.353 401.687 119.08 403.551 115.654C405.415 112.186 406.846 108.718 407.843 105.249C408.84 101.737 409.556 98.4206 409.989 95.299C410.423 92.1774 410.683 89.3809 410.77 86.9097C410.856 84.4384 410.943 82.4874 411.03 81.0567ZM419.679 82.8126C419.723 83.6363 419.809 84.937 419.939 86.7146C420.069 88.4922 420.33 90.6166 420.72 93.0878C421.11 95.5591 421.695 98.2472 422.476 101.152C423.299 104.013 424.383 106.962 425.727 109.997C427.071 113.031 428.74 116.001 430.735 118.906C432.729 121.811 435.135 124.499 437.954 126.97C440.815 129.442 444.153 131.588 447.969 133.409C446.711 134.319 445.541 135.381 444.457 136.595C443.416 137.809 442.571 138.958 441.921 140.042C437.932 138.048 434.442 135.685 431.45 132.953C428.502 130.179 425.966 127.187 423.841 123.979C421.76 120.727 420.026 117.432 418.639 114.094C417.251 110.755 416.124 107.482 415.257 104.274C414.433 101.022 413.804 98.0087 413.371 95.234C412.937 92.4592 412.634 90.053 412.46 88.0152C412.33 85.9775 412.222 84.5034 412.135 83.593L419.679 82.8126ZM471.446 118.906H530.691V125.474H471.446V118.906ZM473.007 83.8531H529.065V90.2914H473.007V83.8531ZM508.905 114.809H516.579V133.083C516.579 134.948 516.319 136.378 515.799 137.376C515.322 138.373 514.411 139.132 513.067 139.652C511.723 140.129 510.076 140.411 508.125 140.497C506.174 140.627 503.876 140.692 501.231 140.692C501.058 139.608 500.732 138.438 500.256 137.181C499.822 135.923 499.345 134.818 498.825 133.864C499.995 133.864 501.166 133.885 502.337 133.929C503.551 133.972 504.613 133.994 505.523 133.994C506.477 133.994 507.127 133.994 507.474 133.994C508.038 133.951 508.406 133.864 508.58 133.734C508.797 133.56 508.905 133.257 508.905 132.823V114.809ZM496.939 79.5609H504.613V112.663H496.939V79.5609ZM480.746 128.726L486.599 124.629C487.769 125.409 488.961 126.32 490.175 127.36C491.433 128.401 492.603 129.442 493.687 130.482C494.814 131.479 495.703 132.433 496.354 133.344L490.045 137.961C489.482 137.05 488.68 136.053 487.639 134.969C486.599 133.885 485.471 132.802 484.257 131.718C483.087 130.59 481.916 129.593 480.746 128.726ZM485.038 106.81V110.127H517.034V106.81H485.038ZM485.038 98.4856V101.802H517.034V98.4856H485.038ZM477.689 93.2179H524.708V115.459H477.689V93.2179ZM553.778 83.8531H593.644V91.3319H553.778V83.8531ZM553.778 98.8758H593.774V106.16H553.778V98.8758ZM553.648 114.224H594.034V121.572H553.648V114.224ZM549.291 83.8531H556.965V107.265C556.965 109.823 556.856 112.62 556.64 115.654C556.423 118.689 555.989 121.746 555.339 124.824C554.732 127.859 553.8 130.764 552.542 133.539C551.329 136.313 549.724 138.785 547.73 140.952C547.34 140.432 546.754 139.847 545.974 139.197C545.194 138.546 544.392 137.918 543.568 137.311C542.787 136.704 542.115 136.227 541.552 135.88C543.329 133.929 544.738 131.783 545.779 129.442C546.82 127.057 547.578 124.607 548.055 122.093C548.575 119.535 548.901 116.998 549.031 114.484C549.204 111.926 549.291 109.498 549.291 107.2V83.8531ZM590.912 83.8531H598.716V131.393C598.716 133.474 598.456 135.078 597.936 136.205C597.416 137.376 596.483 138.264 595.139 138.871C593.839 139.478 592.169 139.869 590.132 140.042C588.094 140.215 585.579 140.28 582.588 140.237C582.458 139.197 582.133 137.939 581.612 136.465C581.092 134.991 580.572 133.755 580.052 132.758C581.309 132.802 582.566 132.845 583.824 132.888C585.081 132.888 586.186 132.888 587.14 132.888C588.137 132.888 588.853 132.888 589.286 132.888C589.893 132.888 590.305 132.78 590.522 132.563C590.782 132.346 590.912 131.934 590.912 131.328V83.8531ZM569.321 86.8446H577.19V139.782H569.321V86.8446ZM61.0498 173.434C61.44 173.944 61.8452 174.59 62.2654 175.37C62.7157 176.121 63.1509 176.871 63.5711 177.621C63.9913 178.372 64.3365 179.032 64.6067 179.602L61.0048 181.133C60.5246 180.203 59.9543 179.152 59.2939 177.981C58.6636 176.781 58.0483 175.745 57.448 174.875L61.0498 173.434ZM66.3626 171.363C66.7528 171.933 67.173 172.609 67.6232 173.389C68.0734 174.14 68.5087 174.89 68.9289 175.64C69.3791 176.361 69.7393 176.976 70.0094 177.486L66.4076 179.062C65.9573 178.102 65.3871 177.036 64.6967 175.865C64.0364 174.695 63.406 173.689 62.8057 172.849L66.3626 171.363ZM46.0571 175.595C45.817 176.166 45.5619 176.796 45.2917 177.486C45.0216 178.177 44.7965 178.777 44.6164 179.287C44.3462 180.008 44.0161 180.848 43.6259 181.808C43.2657 182.739 42.8755 183.669 42.4553 184.6C42.0651 185.53 41.6599 186.386 41.2396 187.166C40.6393 188.337 39.919 189.567 39.0785 190.858C38.2381 192.149 37.3376 193.394 36.3771 194.595C35.4166 195.766 34.4261 196.801 33.4056 197.702L27.7777 194.28C28.5881 193.68 29.3535 192.989 30.0739 192.209C30.8243 191.428 31.5296 190.618 32.19 189.778C32.8803 188.937 33.5107 188.112 34.081 187.301C34.6513 186.461 35.1465 185.695 35.5667 185.005C36.167 183.955 36.6773 182.874 37.0975 181.763C37.5477 180.653 37.9079 179.677 38.1781 178.837C38.4482 178.087 38.6583 177.306 38.8084 176.496C38.9885 175.685 39.0935 174.935 39.1236 174.245L46.0571 175.595ZM38.9885 182.529C39.5288 182.529 40.3242 182.529 41.3747 182.529C42.4553 182.529 43.6709 182.529 45.0216 182.529C46.3723 182.529 47.783 182.529 49.2538 182.529C50.7545 182.529 52.2253 182.529 53.666 182.529C55.1368 182.529 56.5025 182.529 57.7631 182.529C59.0238 182.529 60.0893 182.529 60.9598 182.529C61.8302 182.529 62.4305 182.529 62.7607 182.529C63.361 182.529 64.1114 182.514 65.0119 182.484C65.9123 182.424 66.7227 182.334 67.4431 182.214V188.382C66.6027 188.292 65.7322 188.247 64.8318 188.247C63.9613 188.217 63.271 188.202 62.7607 188.202C62.3705 188.202 61.6051 188.202 60.4645 188.202C59.354 188.202 58.0033 188.202 56.4124 188.202C54.8216 188.202 53.1258 188.202 51.3248 188.202C49.5539 188.202 47.813 188.202 46.1021 188.202C44.4213 188.202 42.9055 188.202 41.5548 188.202C40.2041 188.202 39.1836 188.202 38.4932 188.202L38.9885 182.529ZM56.5475 185.816C56.4875 189.117 56.1423 192.164 55.512 194.955C54.8817 197.717 53.9812 200.238 52.8106 202.519C51.67 204.77 50.2593 206.796 48.5784 208.597C46.8975 210.398 44.9766 211.974 42.8155 213.325L36.7373 209.273C37.5477 208.912 38.3281 208.522 39.0785 208.102C39.8289 207.682 40.4742 207.247 41.0145 206.796C42.3052 205.806 43.4908 204.665 44.5714 203.375C45.6819 202.084 46.6574 200.598 47.4979 198.917C48.3383 197.206 48.9986 195.27 49.4789 193.109C49.9891 190.948 50.2743 188.502 50.3343 185.77L56.5475 185.816ZM79.9595 188.967C80.4998 188.997 81.1902 189.042 82.0306 189.102C82.871 189.132 83.7415 189.162 84.642 189.192C85.5724 189.222 86.4279 189.237 87.2083 189.237C87.9587 189.237 88.8891 189.237 89.9997 189.237C91.1103 189.237 92.3109 189.237 93.6016 189.237C94.9222 189.237 96.2729 189.237 97.6536 189.237C99.0644 189.237 100.46 189.237 101.841 189.237C103.222 189.237 104.527 189.237 105.758 189.237C106.988 189.237 108.084 189.237 109.044 189.237C110.035 189.237 110.815 189.237 111.386 189.237C112.436 189.237 113.427 189.207 114.357 189.147C115.288 189.057 116.053 188.997 116.653 188.967V196.036C116.143 196.006 115.378 195.961 114.357 195.901C113.337 195.841 112.346 195.811 111.386 195.811C110.815 195.811 110.035 195.811 109.044 195.811C108.054 195.811 106.943 195.811 105.713 195.811C104.482 195.811 103.176 195.811 101.796 195.811C100.445 195.811 99.0644 195.811 97.6536 195.811C96.2429 195.811 94.8772 195.811 93.5565 195.811C92.2659 195.811 91.0653 195.811 89.9547 195.811C88.8741 195.811 87.9587 195.811 87.2083 195.811C85.9176 195.811 84.5969 195.841 83.2462 195.901C81.8955 195.931 80.8 195.976 79.9595 196.036V188.967ZM148.968 175.865C148.668 176.526 148.352 177.276 148.022 178.117C147.692 178.927 147.362 179.842 147.032 180.863C146.762 181.703 146.416 182.784 145.996 184.105C145.576 185.395 145.111 186.821 144.6 188.382C144.09 189.913 143.55 191.503 142.98 193.154C142.439 194.775 141.914 196.351 141.404 197.882C140.894 199.413 140.413 200.808 139.963 202.069C139.513 203.3 139.123 204.305 138.792 205.085L132.129 205.311C132.549 204.35 133.015 203.179 133.525 201.799C134.035 200.418 134.575 198.917 135.146 197.296C135.716 195.646 136.271 193.965 136.811 192.254C137.382 190.543 137.907 188.892 138.387 187.301C138.898 185.71 139.348 184.24 139.738 182.889C140.158 181.538 140.488 180.443 140.728 179.602C141.029 178.432 141.254 177.471 141.404 176.721C141.584 175.94 141.719 175.16 141.809 174.38L148.968 175.865ZM157.027 190.408C157.837 191.608 158.708 193.019 159.638 194.64C160.569 196.261 161.484 197.957 162.385 199.728C163.315 201.469 164.171 203.149 164.951 204.77C165.731 206.391 166.377 207.847 166.887 209.138L160.809 211.839C160.299 210.458 159.668 208.897 158.918 207.156C158.197 205.416 157.402 203.645 156.532 201.844C155.691 200.043 154.821 198.347 153.92 196.756C153.05 195.135 152.209 193.785 151.399 192.704L157.027 190.408ZM131.724 203.33C132.744 203.269 133.975 203.194 135.416 203.104C136.887 202.984 138.462 202.849 140.143 202.699C141.824 202.519 143.535 202.339 145.276 202.159C147.047 201.979 148.773 201.799 150.453 201.619C152.164 201.409 153.755 201.213 155.226 201.033C156.697 200.853 157.942 200.688 158.963 200.538L160.314 206.301C159.203 206.451 157.867 206.616 156.306 206.796C154.776 206.976 153.125 207.171 151.354 207.382C149.583 207.562 147.782 207.757 145.951 207.967C144.12 208.177 142.334 208.372 140.593 208.552C138.853 208.732 137.247 208.897 135.776 209.047C134.305 209.168 133.06 209.288 132.039 209.408C131.469 209.468 130.793 209.558 130.013 209.678C129.263 209.768 128.527 209.858 127.807 209.948L126.771 203.375C127.522 203.375 128.347 203.375 129.248 203.375C130.178 203.375 131.003 203.36 131.724 203.33ZM204.031 174.109L206.687 171.093C207.768 171.453 208.909 171.918 210.109 172.489C211.31 173.029 212.27 173.584 212.991 174.155L210.199 177.396C209.539 176.886 208.608 176.316 207.408 175.685C206.237 175.025 205.112 174.5 204.031 174.109ZM181.114 175.73H215.782V180.053H181.114V175.73ZM184.536 182.124H197.863V185.59H184.536V182.124ZM184.716 187.752H189.038V196.036H184.716V187.752ZM208.128 181.178L213.126 182.349C211.805 186.011 210.019 189.327 207.768 192.299C205.547 195.24 203.025 197.657 200.204 199.548C199.964 199.187 199.619 198.782 199.169 198.332C198.718 197.852 198.253 197.386 197.773 196.936C197.293 196.456 196.872 196.066 196.512 195.766C199.184 194.205 201.525 192.164 203.536 189.642C205.547 187.121 207.078 184.3 208.128 181.178ZM197.503 171.543H202.59C202.68 174.665 203.01 177.651 203.581 180.503C204.151 183.324 204.856 185.831 205.697 188.022C206.567 190.213 207.513 191.939 208.533 193.199C209.554 194.46 210.559 195.09 211.55 195.09C212.09 195.09 212.465 194.67 212.675 193.83C212.886 192.989 213.051 191.608 213.171 189.688C213.741 190.168 214.401 190.633 215.152 191.083C215.932 191.503 216.637 191.819 217.268 192.029C217.028 194.16 216.668 195.796 216.187 196.936C215.737 198.077 215.107 198.872 214.296 199.322C213.486 199.743 212.48 199.953 211.28 199.953C209.719 199.953 208.248 199.458 206.867 198.467C205.517 197.477 204.286 196.096 203.176 194.325C202.095 192.524 201.15 190.423 200.339 188.022C199.529 185.62 198.883 183.024 198.403 180.233C197.953 177.441 197.653 174.545 197.503 171.543ZM184.716 187.752H197.548V197.522H184.716V194.055H193.135V191.173H184.716V187.752ZM186.472 201.303H191.83V207.066C191.83 207.697 191.965 208.087 192.235 208.237C192.535 208.387 193.225 208.462 194.306 208.462C194.546 208.462 194.921 208.462 195.432 208.462C195.972 208.462 196.557 208.462 197.187 208.462C197.848 208.462 198.463 208.462 199.033 208.462C199.634 208.462 200.084 208.462 200.384 208.462C200.984 208.462 201.42 208.372 201.69 208.192C201.99 208.012 202.2 207.637 202.32 207.066C202.47 206.496 202.575 205.626 202.635 204.455C202.995 204.695 203.461 204.95 204.031 205.22C204.601 205.461 205.187 205.686 205.787 205.896C206.387 206.076 206.928 206.211 207.408 206.301C207.198 208.162 206.867 209.588 206.417 210.578C205.967 211.599 205.307 212.304 204.436 212.694C203.566 213.085 202.395 213.28 200.924 213.28C200.654 213.28 200.279 213.28 199.799 213.28C199.319 213.28 198.778 213.28 198.178 213.28C197.578 213.28 196.977 213.28 196.377 213.28C195.777 213.28 195.236 213.28 194.756 213.28C194.276 213.28 193.916 213.28 193.676 213.28C191.725 213.28 190.224 213.085 189.173 212.694C188.153 212.334 187.447 211.704 187.057 210.803C186.667 209.903 186.472 208.687 186.472 207.156V201.303ZM190.614 200.088L194.126 197.161C194.966 197.612 195.822 198.137 196.692 198.737C197.593 199.337 198.433 199.953 199.214 200.583C199.994 201.213 200.624 201.814 201.105 202.384L197.323 205.626C196.902 205.055 196.317 204.44 195.567 203.78C194.816 203.119 194.006 202.459 193.135 201.799C192.295 201.138 191.455 200.568 190.614 200.088ZM205.427 202.834L209.929 200.583C210.92 201.484 211.895 202.474 212.856 203.555C213.816 204.635 214.686 205.731 215.467 206.841C216.247 207.952 216.833 209.002 217.223 209.993L212.315 212.469C211.955 211.539 211.415 210.518 210.694 209.408C210.004 208.267 209.194 207.126 208.263 205.986C207.363 204.845 206.417 203.795 205.427 202.834ZM180.439 201.258L185.256 202.969C184.686 204.83 183.936 206.661 183.005 208.462C182.105 210.233 180.874 211.719 179.313 212.919L174.856 209.903C176.207 208.882 177.347 207.607 178.278 206.076C179.208 204.545 179.929 202.939 180.439 201.258ZM178.548 175.73H183.545V182.664C183.545 184.045 183.47 185.545 183.32 187.166C183.17 188.787 182.915 190.438 182.555 192.119C182.195 193.77 181.67 195.39 180.979 196.981C180.319 198.542 179.448 199.968 178.368 201.258C178.128 200.928 177.753 200.538 177.242 200.088C176.762 199.638 176.252 199.217 175.711 198.827C175.201 198.407 174.781 198.122 174.451 197.972C175.711 196.441 176.627 194.775 177.197 192.974C177.768 191.173 178.128 189.372 178.278 187.571C178.458 185.74 178.548 184.075 178.548 182.574V175.73ZM238.294 193.469V195.541H252.791V193.469H238.294ZM238.294 198.557V200.718H252.791V198.557H238.294ZM238.294 188.337V190.408H252.791V188.337H238.294ZM233.296 185.14H258.059V203.96H233.296V185.14ZM237.798 202.654H243.336C243.066 204.215 242.646 205.611 242.076 206.841C241.535 208.072 240.695 209.138 239.554 210.038C238.414 210.938 236.853 211.704 234.872 212.334C232.891 212.994 230.355 213.535 227.263 213.955C227.143 213.505 226.933 212.979 226.633 212.379C226.332 211.779 226.002 211.194 225.642 210.623C225.282 210.083 224.922 209.633 224.562 209.273C227.233 209.032 229.394 208.747 231.045 208.417C232.696 208.057 233.971 207.622 234.872 207.111C235.802 206.601 236.478 205.986 236.898 205.266C237.318 204.515 237.618 203.645 237.798 202.654ZM247.703 202.609H253.061V207.517C253.061 208.117 253.166 208.492 253.376 208.642C253.617 208.762 254.172 208.822 255.042 208.822C255.222 208.822 255.522 208.822 255.943 208.822C256.393 208.822 256.858 208.822 257.338 208.822C257.849 208.822 258.329 208.822 258.779 208.822C259.229 208.822 259.575 208.822 259.815 208.822C260.295 208.822 260.655 208.747 260.895 208.597C261.165 208.417 261.345 208.042 261.436 207.472C261.556 206.901 261.646 206.016 261.706 204.815C262.066 205.085 262.516 205.356 263.056 205.626C263.627 205.866 264.212 206.091 264.812 206.301C265.443 206.481 265.983 206.616 266.433 206.706C266.253 208.567 265.938 209.993 265.488 210.983C265.037 211.974 264.407 212.649 263.597 213.009C262.786 213.4 261.721 213.595 260.4 213.595C260.16 213.595 259.83 213.595 259.409 213.595C259.019 213.595 258.569 213.595 258.059 213.595C257.549 213.595 257.053 213.595 256.573 213.595C256.093 213.595 255.643 213.595 255.222 213.595C254.832 213.595 254.532 213.595 254.322 213.595C252.521 213.595 251.14 213.4 250.18 213.009C249.249 212.649 248.604 212.019 248.244 211.119C247.884 210.248 247.703 209.077 247.703 207.607V202.609ZM226.453 178.702H265.037V188.652H259.86V183.159H231.405V188.652H226.453V178.702ZM256.393 171.813L262.201 173.569C261.21 174.83 260.22 176.076 259.229 177.306C258.239 178.507 257.338 179.542 256.528 180.413L252.071 178.747C252.581 178.087 253.106 177.366 253.647 176.586C254.187 175.775 254.697 174.965 255.177 174.155C255.658 173.314 256.063 172.534 256.393 171.813ZM228.974 174.245L233.566 172.219C234.347 173.029 235.127 173.959 235.907 175.01C236.718 176.03 237.318 176.946 237.708 177.756L232.756 180.008C232.426 179.227 231.9 178.297 231.18 177.216C230.46 176.106 229.724 175.115 228.974 174.245ZM240.455 173.164L245.182 171.543C245.812 172.414 246.458 173.419 247.118 174.56C247.779 175.67 248.259 176.631 248.559 177.441L243.606 179.287C243.336 178.477 242.901 177.486 242.301 176.316C241.7 175.145 241.085 174.094 240.455 173.164ZM299.165 178.972C298.865 181.253 298.475 183.684 297.994 186.266C297.514 188.847 296.869 191.458 296.058 194.1C295.188 197.131 294.167 199.743 292.997 201.934C291.826 204.125 290.535 205.821 289.125 207.021C287.744 208.192 286.228 208.777 284.577 208.777C282.927 208.777 281.396 208.222 279.985 207.111C278.604 205.971 277.494 204.41 276.653 202.429C275.843 200.448 275.438 198.197 275.438 195.676C275.438 193.064 275.963 190.603 277.014 188.292C278.064 185.981 279.52 183.94 281.381 182.169C283.272 180.368 285.463 178.957 287.954 177.936C290.475 176.916 293.192 176.406 296.103 176.406C298.895 176.406 301.401 176.856 303.622 177.756C305.873 178.657 307.794 179.902 309.385 181.493C310.976 183.084 312.192 184.945 313.032 187.076C313.872 189.207 314.293 191.503 314.293 193.965C314.293 197.116 313.647 199.938 312.357 202.429C311.066 204.92 309.145 206.976 306.594 208.597C304.072 210.218 300.921 211.329 297.139 211.929L293.762 206.571C294.633 206.481 295.398 206.376 296.058 206.256C296.719 206.136 297.349 206.001 297.949 205.851C299.39 205.491 300.726 204.98 301.956 204.32C303.217 203.63 304.313 202.789 305.243 201.799C306.174 200.778 306.894 199.593 307.404 198.242C307.944 196.891 308.215 195.405 308.215 193.785C308.215 192.014 307.944 190.393 307.404 188.922C306.864 187.451 306.068 186.176 305.018 185.095C303.967 183.985 302.692 183.144 301.191 182.574C299.69 181.974 297.964 181.673 296.013 181.673C293.612 181.673 291.496 182.109 289.665 182.979C287.834 183.819 286.288 184.915 285.028 186.266C283.767 187.616 282.807 189.072 282.146 190.633C281.516 192.194 281.201 193.68 281.201 195.09C281.201 196.591 281.381 197.852 281.741 198.872C282.101 199.863 282.536 200.613 283.047 201.123C283.587 201.604 284.157 201.844 284.758 201.844C285.388 201.844 286.003 201.529 286.603 200.898C287.234 200.238 287.849 199.247 288.449 197.927C289.05 196.606 289.65 194.94 290.25 192.929C290.941 190.768 291.526 188.457 292.006 185.996C292.486 183.534 292.832 181.133 293.042 178.792L299.165 178.972ZM362.107 179.827C361.897 180.248 361.702 180.758 361.522 181.358C361.372 181.929 361.237 182.469 361.117 182.979C360.877 184.06 360.561 185.29 360.171 186.671C359.781 188.052 359.316 189.477 358.776 190.948C358.235 192.419 357.59 193.875 356.84 195.315C356.119 196.756 355.294 198.107 354.363 199.367C353.013 201.138 351.437 202.819 349.636 204.41C347.835 205.971 345.824 207.382 343.603 208.642C341.382 209.873 338.935 210.923 336.264 211.794L331.356 206.436C334.328 205.716 336.894 204.83 339.055 203.78C341.247 202.699 343.153 201.499 344.773 200.178C346.394 198.827 347.805 197.386 349.006 195.856C349.996 194.595 350.836 193.229 351.527 191.759C352.247 190.288 352.833 188.802 353.283 187.301C353.763 185.801 354.093 184.42 354.273 183.159C353.823 183.159 353.073 183.159 352.022 183.159C351.002 183.159 349.786 183.159 348.375 183.159C346.995 183.159 345.539 183.159 344.008 183.159C342.507 183.159 341.051 183.159 339.641 183.159C338.23 183.159 336.954 183.159 335.814 183.159C334.703 183.159 333.863 183.159 333.292 183.159C332.272 183.159 331.266 183.174 330.276 183.204C329.315 183.234 328.535 183.279 327.935 183.339V176.991C328.415 177.021 328.97 177.066 329.601 177.126C330.231 177.186 330.891 177.246 331.582 177.306C332.272 177.336 332.857 177.351 333.337 177.351C333.788 177.351 334.463 177.351 335.364 177.351C336.264 177.351 337.3 177.351 338.47 177.351C339.641 177.351 340.856 177.351 342.117 177.351C343.408 177.351 344.683 177.351 345.944 177.351C347.205 177.351 348.39 177.351 349.501 177.351C350.611 177.351 351.572 177.351 352.382 177.351C353.223 177.351 353.808 177.351 354.138 177.351C354.588 177.351 355.144 177.336 355.804 177.306C356.464 177.246 357.08 177.141 357.65 176.991L362.107 179.827ZM375.545 196.981C377.496 196.561 379.477 195.991 381.488 195.27C383.529 194.52 385.435 193.725 387.206 192.884C388.977 192.014 390.463 191.233 391.664 190.543C393.134 189.642 394.575 188.637 395.986 187.526C397.427 186.386 398.747 185.245 399.948 184.105C401.148 182.964 402.124 181.899 402.874 180.908L407.332 185.275C406.461 186.266 405.306 187.361 403.865 188.562C402.454 189.733 400.923 190.918 399.272 192.119C397.622 193.289 395.971 194.355 394.32 195.315C393.299 195.946 392.129 196.591 390.808 197.251C389.487 197.882 388.092 198.512 386.621 199.142C385.18 199.743 383.724 200.313 382.254 200.853C380.813 201.394 379.462 201.874 378.202 202.294L375.545 196.981ZM391.123 194.055L397.246 192.884V208.912C397.246 209.423 397.246 210.008 397.246 210.668C397.276 211.329 397.321 211.929 397.381 212.469C397.442 213.04 397.502 213.475 397.562 213.775H390.898C390.958 213.475 390.988 213.04 390.988 212.469C391.018 211.929 391.048 211.329 391.078 210.668C391.108 210.008 391.123 209.423 391.123 208.912V194.055ZM442.99 183.069C443.2 183.549 443.47 184.24 443.8 185.14C444.161 186.011 444.536 186.956 444.926 187.977C445.316 188.967 445.661 189.913 445.961 190.813C446.262 191.714 446.502 192.419 446.682 192.929L441.279 194.82C441.159 194.25 440.949 193.529 440.649 192.659C440.349 191.789 440.018 190.873 439.658 189.913C439.298 188.922 438.938 187.977 438.578 187.076C438.217 186.176 437.902 185.425 437.632 184.825L442.99 183.069ZM459.603 186.356C459.363 187.076 459.153 187.691 458.973 188.202C458.823 188.712 458.673 189.192 458.523 189.642C457.953 191.924 457.172 194.205 456.182 196.486C455.191 198.737 453.931 200.853 452.4 202.834C450.299 205.536 447.912 207.832 445.241 209.723C442.6 211.584 439.958 213.009 437.317 214L432.59 209.183C434.24 208.732 435.981 208.072 437.812 207.202C439.643 206.301 441.414 205.22 443.125 203.96C444.836 202.699 446.307 201.303 447.537 199.773C448.558 198.482 449.458 197.011 450.239 195.36C451.049 193.68 451.709 191.894 452.22 190.003C452.76 188.082 453.12 186.191 453.3 184.33L459.603 186.356ZM432.545 185.455C432.845 186.026 433.175 186.761 433.535 187.661C433.925 188.562 434.315 189.507 434.706 190.498C435.096 191.488 435.471 192.449 435.831 193.379C436.221 194.31 436.522 195.09 436.732 195.721L431.239 197.792C431.059 197.191 430.789 196.411 430.428 195.45C430.098 194.49 429.723 193.484 429.303 192.434C428.883 191.353 428.477 190.363 428.087 189.462C427.727 188.562 427.412 187.872 427.142 187.391L432.545 185.455ZM483.916 205.491C483.916 204.92 483.916 203.99 483.916 202.699C483.916 201.379 483.916 199.863 483.916 198.152C483.916 196.411 483.916 194.595 483.916 192.704C483.916 190.813 483.916 188.997 483.916 187.256C483.916 185.485 483.916 183.925 483.916 182.574C483.916 181.223 483.916 180.233 483.916 179.602C483.916 178.822 483.871 177.921 483.781 176.901C483.721 175.88 483.616 174.98 483.466 174.2H490.489C490.399 174.98 490.309 175.85 490.219 176.811C490.129 177.741 490.084 178.672 490.084 179.602C490.084 180.443 490.084 181.583 490.084 183.024C490.084 184.465 490.084 186.071 490.084 187.842C490.084 189.582 490.084 191.368 490.084 193.199C490.084 195 490.084 196.741 490.084 198.422C490.084 200.103 490.084 201.574 490.084 202.834C490.084 204.065 490.084 204.95 490.084 205.491C490.084 205.911 490.099 206.511 490.129 207.292C490.159 208.042 490.219 208.822 490.309 209.633C490.399 210.443 490.459 211.164 490.489 211.794H483.466C483.586 210.893 483.691 209.843 483.781 208.642C483.871 207.442 483.916 206.391 483.916 205.491ZM488.733 185.861C490.234 186.251 491.915 186.761 493.776 187.391C495.637 187.992 497.513 188.637 499.404 189.327C501.295 190.018 503.066 190.708 504.717 191.398C506.398 192.059 507.793 192.674 508.904 193.244L506.338 199.458C505.077 198.797 503.681 198.137 502.15 197.477C500.62 196.786 499.059 196.126 497.468 195.495C495.907 194.865 494.361 194.28 492.831 193.74C491.33 193.199 489.964 192.719 488.733 192.299V185.861ZM545.283 173.029C545.222 173.569 545.162 174.23 545.102 175.01C545.042 175.76 545.012 176.481 545.012 177.171C545.012 177.621 545.012 178.162 545.012 178.792C545.012 179.392 545.012 179.993 545.012 180.593C545.012 181.193 545.012 181.733 545.012 182.214H539.114C539.114 181.733 539.114 181.208 539.114 180.638C539.114 180.068 539.114 179.482 539.114 178.882C539.114 178.282 539.114 177.711 539.114 177.171C539.114 176.451 539.084 175.715 539.024 174.965C538.994 174.215 538.934 173.569 538.844 173.029H545.283ZM557.889 182.709C557.319 183.279 556.703 183.91 556.043 184.6C555.413 185.29 554.857 185.906 554.377 186.446C553.567 187.376 552.606 188.397 551.496 189.507C550.415 190.588 549.23 191.684 547.939 192.794C546.678 193.905 545.358 194.955 543.977 195.946C542.356 197.086 540.54 198.182 538.529 199.232C536.518 200.253 534.387 201.213 532.136 202.114C529.885 202.984 527.588 203.765 525.247 204.455L521.78 199.142C526.133 198.182 529.795 196.996 532.766 195.586C535.738 194.175 538.199 192.854 540.15 191.623C541.29 190.843 542.356 190.063 543.347 189.282C544.337 188.502 545.207 187.737 545.958 186.986C546.708 186.206 547.294 185.515 547.714 184.915C547.324 184.915 546.693 184.915 545.823 184.915C544.952 184.915 543.962 184.915 542.851 184.915C541.741 184.915 540.585 184.915 539.384 184.915C538.184 184.915 537.043 184.915 535.963 184.915C534.882 184.915 533.937 184.915 533.126 184.915C532.316 184.915 531.746 184.915 531.415 184.915C530.905 184.915 530.275 184.93 529.524 184.96C528.774 184.96 528.039 184.975 527.318 185.005C526.628 185.005 526.043 185.035 525.562 185.095V179.197C526.433 179.317 527.408 179.407 528.489 179.467C529.599 179.497 530.545 179.512 531.325 179.512C531.656 179.512 532.286 179.512 533.216 179.512C534.177 179.512 535.287 179.512 536.548 179.512C537.839 179.512 539.189 179.512 540.6 179.512C542.011 179.512 543.377 179.512 544.697 179.512C546.048 179.512 547.219 179.512 548.209 179.512C549.23 179.512 549.965 179.512 550.415 179.512C551.106 179.512 551.766 179.482 552.396 179.422C553.057 179.332 553.642 179.212 554.152 179.062L557.889 182.709ZM544.922 192.524C544.922 193.334 544.922 194.355 544.922 195.586C544.922 196.786 544.907 198.062 544.877 199.413C544.877 200.763 544.877 202.084 544.877 203.375C544.877 204.635 544.877 205.716 544.877 206.616C544.877 207.217 544.892 207.877 544.922 208.597C544.952 209.318 544.997 210.008 545.057 210.668C545.117 211.329 545.162 211.899 545.192 212.379H538.709C538.769 211.959 538.829 211.404 538.889 210.713C538.949 210.053 538.994 209.363 539.024 208.642C539.054 207.892 539.069 207.217 539.069 206.616C539.069 205.776 539.069 204.815 539.069 203.735C539.069 202.654 539.069 201.574 539.069 200.493C539.069 199.382 539.069 198.347 539.069 197.386C539.069 196.426 539.069 195.601 539.069 194.91L544.922 192.524ZM558.519 204.905C557.229 203.855 556.013 202.939 554.872 202.159C553.732 201.348 552.591 200.598 551.451 199.908C550.31 199.187 549.079 198.467 547.759 197.747L551.496 193.424C552.876 194.175 554.107 194.865 555.188 195.495C556.268 196.096 557.364 196.741 558.474 197.431C559.585 198.122 560.861 198.962 562.301 199.953L558.519 204.905ZM606.379 179.287C606.199 179.557 605.929 179.978 605.569 180.548C605.238 181.118 604.983 181.643 604.803 182.124C604.173 183.534 603.392 185.11 602.462 186.851C601.561 188.592 600.526 190.348 599.355 192.119C598.215 193.86 596.999 195.495 595.708 197.026C594.028 198.917 592.167 200.793 590.126 202.654C588.115 204.485 585.983 206.181 583.732 207.742C581.511 209.273 579.23 210.593 576.889 211.704L572.251 206.841C574.683 205.911 577.039 204.74 579.32 203.33C581.601 201.919 583.717 200.388 585.668 198.737C587.619 197.086 589.3 195.48 590.711 193.92C591.701 192.779 592.632 191.563 593.502 190.273C594.403 188.982 595.198 187.706 595.889 186.446C596.579 185.155 597.089 183.97 597.419 182.889C597.119 182.889 596.579 182.889 595.798 182.889C595.018 182.889 594.103 182.889 593.052 182.889C592.032 182.889 590.951 182.889 589.81 182.889C588.67 182.889 587.574 182.889 586.524 182.889C585.503 182.889 584.603 182.889 583.822 182.889C583.042 182.889 582.487 182.889 582.156 182.889C581.526 182.889 580.866 182.919 580.175 182.979C579.485 183.009 578.825 183.054 578.194 183.114C577.594 183.144 577.129 183.174 576.799 183.204V176.811C577.249 176.841 577.804 176.886 578.465 176.946C579.125 177.006 579.785 177.051 580.446 177.081C581.136 177.111 581.706 177.126 582.156 177.126C582.547 177.126 583.162 177.126 584.002 177.126C584.843 177.126 585.803 177.126 586.884 177.126C587.964 177.126 589.075 177.126 590.216 177.126C591.386 177.126 592.497 177.126 593.547 177.126C594.628 177.126 595.558 177.126 596.339 177.126C597.119 177.126 597.689 177.126 598.05 177.126C599.04 177.126 599.941 177.066 600.751 176.946C601.591 176.826 602.237 176.691 602.687 176.541L606.379 179.287ZM596.294 193.289C597.464 194.22 598.71 195.3 600.031 196.531C601.351 197.762 602.657 199.037 603.948 200.358C605.238 201.679 606.424 202.954 607.505 204.185C608.615 205.386 609.546 206.436 610.296 207.337L605.163 211.794C604.053 210.263 602.777 208.672 601.336 207.021C599.926 205.371 598.425 203.735 596.834 202.114C595.273 200.463 593.682 198.902 592.062 197.431L596.294 193.289ZM661.352 179.332C661.112 179.632 660.812 180.023 660.452 180.503C660.092 180.953 659.806 181.343 659.596 181.673C658.906 182.844 657.99 184.195 656.85 185.725C655.709 187.226 654.449 188.727 653.068 190.228C651.687 191.699 650.261 192.959 648.791 194.01L644.108 190.273C645.009 189.733 645.894 189.102 646.765 188.382C647.635 187.661 648.431 186.911 649.151 186.131C649.901 185.32 650.547 184.555 651.087 183.834C651.657 183.114 652.092 182.469 652.393 181.899C652.002 181.899 651.342 181.899 650.412 181.899C649.481 181.899 648.371 181.899 647.08 181.899C645.789 181.899 644.393 181.899 642.893 181.899C641.422 181.899 639.951 181.899 638.48 181.899C637.01 181.899 635.614 181.899 634.293 181.899C633.003 181.899 631.877 181.899 630.917 181.899C629.986 181.899 629.326 181.899 628.936 181.899C628.005 181.899 627.12 181.929 626.279 181.989C625.439 182.049 624.493 182.124 623.443 182.214V175.955C624.313 176.076 625.214 176.181 626.144 176.271C627.075 176.361 628.005 176.406 628.936 176.406C629.326 176.406 630.016 176.406 631.007 176.406C631.997 176.406 633.168 176.406 634.518 176.406C635.899 176.406 637.355 176.406 638.886 176.406C640.446 176.406 641.992 176.406 643.523 176.406C645.084 176.406 646.525 176.406 647.845 176.406C649.196 176.406 650.337 176.406 651.267 176.406C652.227 176.406 652.873 176.406 653.203 176.406C653.623 176.406 654.133 176.391 654.734 176.361C655.334 176.331 655.919 176.286 656.49 176.226C657.09 176.166 657.525 176.091 657.795 176L661.352 179.332ZM642.983 185.41C642.983 187.631 642.938 189.778 642.848 191.849C642.758 193.92 642.502 195.916 642.082 197.837C641.692 199.728 641.047 201.529 640.146 203.239C639.276 204.95 638.06 206.571 636.499 208.102C634.939 209.633 632.943 211.043 630.511 212.334L625.244 208.057C625.964 207.817 626.729 207.502 627.54 207.111C628.35 206.691 629.161 206.181 629.971 205.581C631.412 204.59 632.567 203.54 633.438 202.429C634.338 201.318 635.029 200.118 635.509 198.827C635.989 197.507 636.319 196.081 636.499 194.55C636.679 192.989 636.77 191.293 636.77 189.462C636.77 188.772 636.755 188.112 636.725 187.481C636.695 186.821 636.604 186.131 636.454 185.41H642.983ZM704.079 176.811C704.079 177.531 704.334 178.147 704.845 178.657C705.355 179.137 705.955 179.377 706.645 179.377C707.366 179.377 707.981 179.137 708.491 178.657C709.002 178.147 709.257 177.531 709.257 176.811C709.257 176.091 709.002 175.475 708.491 174.965C707.981 174.455 707.366 174.2 706.645 174.2C705.955 174.2 705.355 174.455 704.845 174.965C704.334 175.475 704.079 176.091 704.079 176.811ZM701.288 176.811C701.288 175.82 701.528 174.92 702.008 174.109C702.518 173.269 703.179 172.609 703.989 172.128C704.8 171.648 705.685 171.408 706.645 171.408C707.636 171.408 708.536 171.648 709.347 172.128C710.187 172.609 710.848 173.269 711.328 174.109C711.808 174.92 712.048 175.82 712.048 176.811C712.048 177.771 711.808 178.657 711.328 179.467C710.848 180.278 710.187 180.938 709.347 181.448C708.536 181.929 707.636 182.169 706.645 182.169C705.685 182.169 704.8 181.929 703.989 181.448C703.179 180.938 702.518 180.278 702.008 179.467C701.528 178.657 701.288 177.771 701.288 176.811ZM706.736 180.368C706.525 180.788 706.345 181.298 706.195 181.899C706.045 182.469 705.895 182.994 705.745 183.474C705.505 184.585 705.19 185.831 704.8 187.211C704.409 188.562 703.944 189.973 703.404 191.443C702.864 192.914 702.218 194.37 701.468 195.811C700.747 197.251 699.922 198.602 698.992 199.863C697.641 201.664 696.065 203.345 694.264 204.905C692.463 206.466 690.452 207.877 688.231 209.138C686.01 210.398 683.564 211.464 680.892 212.334L675.985 206.931C678.986 206.211 681.568 205.326 683.729 204.275C685.89 203.224 687.766 202.024 689.357 200.673C690.977 199.322 692.403 197.882 693.634 196.351C694.624 195.09 695.465 193.725 696.155 192.254C696.875 190.783 697.461 189.312 697.911 187.842C698.391 186.341 698.721 184.945 698.901 183.654C698.451 183.654 697.701 183.654 696.65 183.654C695.63 183.654 694.414 183.654 693.003 183.654C691.623 183.654 690.167 183.654 688.636 183.654C687.135 183.654 685.68 183.654 684.269 183.654C682.858 183.654 681.583 183.654 680.442 183.654C679.331 183.654 678.506 183.654 677.966 183.654C676.915 183.654 675.895 183.669 674.904 183.699C673.944 183.729 673.178 183.774 672.608 183.834V177.486C673.058 177.546 673.598 177.606 674.229 177.666C674.889 177.726 675.549 177.771 676.21 177.801C676.9 177.831 677.485 177.846 677.966 177.846C678.446 177.846 679.121 177.846 679.992 177.846C680.892 177.846 681.928 177.846 683.098 177.846C684.269 177.846 685.485 177.846 686.745 177.846C688.036 177.846 689.312 177.846 690.572 177.846C691.863 177.846 693.063 177.846 694.174 177.846C695.285 177.846 696.245 177.846 697.056 177.846C697.866 177.846 698.451 177.846 698.811 177.846C699.262 177.846 699.802 177.831 700.432 177.801C701.093 177.771 701.723 177.666 702.323 177.486L706.736 180.368ZM753.56 174.875C753.53 175.505 753.485 176.196 753.425 176.946C753.394 177.666 753.379 178.477 753.379 179.377C753.379 180.158 753.379 181.103 753.379 182.214C753.379 183.324 753.379 184.435 753.379 185.545C753.379 186.626 753.379 187.541 753.379 188.292C753.379 190.693 753.259 192.794 753.019 194.595C752.809 196.396 752.479 197.972 752.029 199.322C751.579 200.673 751.023 201.874 750.363 202.924C749.733 203.945 748.997 204.92 748.157 205.851C747.166 206.931 746.026 207.907 744.735 208.777C743.444 209.618 742.139 210.323 740.818 210.893C739.527 211.494 738.327 211.974 737.216 212.334L732.489 207.382C734.74 206.871 736.766 206.166 738.567 205.266C740.398 204.335 741.989 203.149 743.339 201.709C744.12 200.838 744.75 199.968 745.23 199.097C745.711 198.227 746.071 197.266 746.311 196.216C746.581 195.135 746.761 193.92 746.851 192.569C746.971 191.218 747.031 189.672 747.031 187.932C747.031 187.151 747.031 186.221 747.031 185.14C747.031 184.06 747.031 182.994 747.031 181.944C747.031 180.893 747.031 180.038 747.031 179.377C747.031 178.477 747.001 177.666 746.941 176.946C746.911 176.196 746.851 175.505 746.761 174.875H753.56ZM732.669 175.235C732.639 175.775 732.609 176.316 732.579 176.856C732.549 177.366 732.534 177.981 732.534 178.702C732.534 179.032 732.534 179.572 732.534 180.323C732.534 181.073 732.534 181.959 732.534 182.979C732.534 183.97 732.534 185.02 732.534 186.131C732.534 187.211 732.534 188.262 732.534 189.282C732.534 190.303 732.534 191.233 732.534 192.074C732.534 192.884 732.534 193.499 732.534 193.92C732.534 194.49 732.549 195.15 732.579 195.901C732.609 196.651 732.639 197.296 732.669 197.837H726.14C726.17 197.416 726.216 196.816 726.276 196.036C726.336 195.255 726.366 194.535 726.366 193.875C726.366 193.454 726.366 192.839 726.366 192.029C726.366 191.218 726.366 190.303 726.366 189.282C726.366 188.232 726.366 187.166 726.366 186.086C726.366 184.975 726.366 183.925 726.366 182.934C726.366 181.944 726.366 181.073 726.366 180.323C726.366 179.572 726.366 179.032 726.366 178.702C726.366 178.282 726.351 177.741 726.321 177.081C726.291 176.391 726.246 175.775 726.186 175.235H732.669Z" fill="#186472"/>
<ellipse cx="502.036" cy="64.6264" rx="8.50437" ry="7.7867" fill="#186472"/>
<ellipse cx="573.073" cy="64.6264" rx="8.50437" ry="7.7867" fill="#186472"/>
</svg>
