<svg width="321" height="496" viewBox="0 0 321 496" fill="none" xmlns="http://www.w3.org/2000/svg">
<path d="M305.613 493.693C302.598 494.786 300.273 495.258 295.906 495.666C289.721 496.243 296.3 496.403 199.415 493.333C125.686 490.996 120.089 490.787 114.593 490.158C102.632 488.789 93.2799 484.302 85.7879 476.337C84.3094 474.765 83.5454 474.138 81.1062 470.094C78.534 465.83 78.4819 465.138 77.6034 462.574C75.4655 456.334 74.8971 453.664 71.0002 431.551C67.8553 413.704 34.039 221.975 19.2185 137.962C1.75086 38.9435 1.2715 36.2093 0.751095 32.6218C-0.224913 25.8937 -0.24766 21.5642 0.670821 17.3434C1.97152 11.3662 4.93628 7.1683 10.013 4.09964C16.0786 0.433169 22.4262 -0.489277 36.5957 0.221814C41.3926 0.462544 172.923 8.67645 187.843 9.66701C200.382 10.4995 207.026 11.6837 212.994 14.1498C225.415 19.2821 233.176 28.0746 237.303 41.6875C238.387 45.2629 239.223 49.3459 246.604 87.1172C258.554 148.265 304.619 383.942 311.853 420.944C319.067 457.843 319.949 462.635 320.271 466.703C321.037 476.374 319.14 483.105 314.203 488.227C312.301 490.2 308.4 492.682 305.613 493.693ZM153.72 29.4642C155.465 26.6426 155.048 22.5841 152.676 19.3041C150.121 15.7712 146.224 13.576 141.679 13.1094C140.024 12.9396 91.0318 9.90099 88.5754 9.81585C85.8787 9.72237 83.7104 10.262 82.0414 11.4418C76.6321 15.2658 78.7144 23.8155 86.0933 28.0787C88.6969 29.5829 91.1459 29.8718 111.942 31.1276C149.404 33.3897 146.948 33.2787 149.039 32.8035C150.568 32.456 152.897 30.7946 153.72 29.4642Z" fill="white"/>
</svg>
