<svg width="427" height="102" viewBox="0 0 427 102" fill="none" xmlns="http://www.w3.org/2000/svg">
<path d="M46.8498 102C32.4866 102 21.7363 99.5732 13.986 94.5784C7.6089 90.4671 0 82.4505 0 67.6073C0 58.024 4.7504 48.7882 14.1569 40.0649C11.0921 35.1878 7.93895 29.8278 4.90954 24.3264C3.60111 21.9468 3.17086 19.1843 3.7072 16.516L3.90759 15.5206C4.59127 12.0984 6.78966 9.17099 9.8839 7.56297L21.9249 1.30173C23.5811 0.441762 25.4082 0 27.247 0C28.361 0 29.4749 0.159034 30.5594 0.482994L31.5554 0.783392C34.4493 1.64925 36.8834 3.61656 38.3392 6.26714C41.1211 11.3209 43.8735 16.0389 46.4962 20.2622C53.0442 17.2994 60.1698 14.3838 67.5312 11.6566C68.8219 11.1795 70.1775 10.938 71.5331 10.938C72.9888 10.938 74.4387 11.2149 75.812 11.7627L76.808 12.1632C79.5781 13.2705 81.8119 15.4087 83.0378 18.124L88.908 31.1531C90.3284 34.3102 90.2577 37.9386 88.7076 41.0309L88.3068 41.8261C86.9395 44.5591 84.5407 46.6383 81.6409 47.5984C75.3346 49.7012 68.5213 52.2104 62.9694 54.4546C61.9851 58.1359 59.828 61.405 56.9518 63.8494C62.4979 63.5549 68.8101 63.0189 76.3778 62.2119C76.7844 62.1707 77.1911 62.1471 77.5978 62.1471C80.0791 62.1471 82.5073 62.9482 84.5112 64.4502L85.3069 65.0451C88.1182 67.1538 89.8156 70.4287 89.9158 73.9392L90.3166 88.1581C90.3814 90.5377 89.7095 92.8879 88.3834 94.867L87.7882 95.7623C85.8196 98.7074 82.6075 100.586 79.0712 100.857C68.816 101.635 58.8791 101.982 46.8498 101.982V102Z" fill="#AED3D6"/>
<path d="M46.8498 97.3938C33.4002 97.3938 23.4632 95.2085 16.485 90.7084C8.71693 85.7018 4.60895 77.7147 4.60895 67.6072C4.60895 58.4598 9.83675 49.5008 20.1686 40.913C16.5085 35.2938 12.6363 28.8028 8.94679 22.1057C8.16291 20.6803 7.90359 19.0192 8.22185 17.423L8.42224 16.4276C8.83481 14.3778 10.1491 12.6166 12.0116 11.6506L24.0526 5.38349C25.0487 4.86516 26.1449 4.6001 27.247 4.6001C27.913 4.6001 28.5849 4.69434 29.2333 4.89461L30.2293 5.195C31.968 5.71334 33.4296 6.89726 34.3019 8.48172C37.8971 15.0198 41.457 21.016 44.7634 26.1287C52.1719 22.6358 60.4822 19.1665 69.1284 15.9681C69.9005 15.6795 70.7138 15.5381 71.5272 15.5381C72.3995 15.5381 73.2717 15.7031 74.0969 16.0329L75.0929 16.4334C76.755 17.099 78.0929 18.3831 78.8296 20.0088L84.6998 33.0378C85.5544 34.9286 85.5073 37.1079 84.5819 38.9633L84.1812 39.7585C83.3619 41.396 81.9238 42.6447 80.1852 43.2219C72.8827 45.6546 64.8966 48.635 58.9027 51.1442C58.2131 58.9251 51.111 63.7609 44.8636 63.7609C42.4766 63.7609 40.1957 63.2779 38.0504 62.3178C35.4689 64.1615 33.9424 65.8402 33.7008 67.1419C34.6556 67.6661 37.7262 68.7381 46.9559 68.7381C54.9833 68.7381 64.2071 68.1373 76.8728 66.7885C77.1145 66.7649 77.362 66.7472 77.6037 66.7472C79.0948 66.7472 80.5506 67.2302 81.7529 68.1314L82.5486 68.7263C84.2342 69.9927 85.2538 71.9541 85.3128 74.0628L85.7135 88.2817C85.7548 89.713 85.3481 91.1208 84.5525 92.3106L83.9572 93.2059C82.7784 94.9729 80.8512 96.1038 78.7294 96.2629C68.598 97.0345 58.7671 97.3761 46.8616 97.3761L46.8498 97.3938Z" fill="white"/>
<path d="M78.1989 89.3892C69.0459 90.0843 59.3918 90.4848 46.8557 90.4848C22.974 90.4848 11.5283 83.2222 11.5283 67.6133C11.5283 58.566 18.9898 49.9133 29.5397 42.4505C24.6656 35.4883 19.3906 26.7355 15.0115 18.7838L15.2119 17.7884L27.2529 11.5212L28.249 11.8216C32.6281 19.7793 37.6025 28.1315 42.3823 34.9935C51.4352 30.4169 61.5902 26.1406 71.539 22.4652L72.535 22.8657L78.4052 35.8947L78.0045 36.6899C69.3465 39.5761 60.4881 42.9571 54.718 45.4427C53.1267 46.7327 52.2309 48.0285 52.0305 50.414C51.7299 54.3899 47.952 56.8755 44.8636 56.8755C42.176 56.8755 39.9894 55.8801 37.9973 54.1896C30.2352 58.6661 26.752 62.8423 26.752 67.5132C26.752 74.1749 35.2096 75.6651 46.95 75.6651C55.7082 75.6651 65.4566 74.9701 77.5978 73.6743L78.3934 74.2692L78.7942 88.488L78.1989 89.3833V89.3892Z" fill="#22969F"/>
<path d="M153.127 100.804C123.805 100.804 107.727 89.5481 105.346 67.3422C105.045 64.5385 105.788 61.7171 107.426 59.4199L107.921 58.7249C109.342 56.734 111.357 55.2497 113.68 54.484L126.021 50.408C127.2 50.0192 128.42 49.8248 129.64 49.8248C131.414 49.8248 133.176 50.2313 134.791 51.0382L135.587 51.4388C138.899 53.0939 141.21 56.2333 141.805 59.8794C141.917 60.5626 142.029 61.0397 142.117 61.3578C143.496 61.7583 146.732 62.153 154.111 62.153C163.63 62.153 174.121 61.3342 184.452 59.791C185.018 59.7085 185.59 59.6614 186.156 59.6614C188.702 59.6614 191.195 60.5037 193.234 62.0882L194.13 62.7832C196.641 64.7329 198.232 67.6367 198.527 70.7997L199.918 85.7195C200.165 88.3465 199.499 90.9853 198.032 93.1824L197.436 94.0777C195.545 96.9049 192.503 98.7603 189.12 99.1314C175.706 100.622 162.15 100.792 153.121 100.792L153.127 100.804ZM146.561 44.9124C140.355 44.9124 133.548 44.5767 127.406 43.9582C125.019 43.7226 122.768 42.7449 120.964 41.1663L120.169 40.4713C117.564 38.1918 116.12 34.8579 116.243 31.4004L116.739 17.2758C116.862 13.7005 118.642 10.3902 121.554 8.31096L122.249 7.81618C124.212 6.41432 126.558 5.66627 128.95 5.66627C129.334 5.66627 129.717 5.68394 130.1 5.72517C135.74 6.29063 141.162 6.56158 146.667 6.56158C154.854 6.56158 164.926 5.74284 175.789 4.19373C176.331 4.11716 176.879 4.07593 177.415 4.07593C180.15 4.07593 182.814 5.04781 184.918 6.8502L185.613 7.4451C188.077 9.55967 189.539 12.6167 189.633 15.8621L190.034 29.8866C190.134 33.3206 188.69 36.6191 186.103 38.8809L185.307 39.576C183.733 40.9543 181.812 41.879 179.749 42.2442C169.853 44.0113 158.696 44.9124 146.573 44.9124H146.561Z" fill="#AED3D6"/>
<path d="M153.127 96.1982C126.174 96.1982 112.047 86.5973 109.931 66.8534C109.748 65.1688 110.196 63.4783 111.181 62.1L111.676 61.405C112.53 60.2093 113.739 59.3199 115.13 58.8605L127.471 54.7845C128.178 54.5489 128.909 54.4369 129.64 54.4369C130.707 54.4369 131.762 54.6843 132.734 55.1673L133.53 55.5679C135.516 56.5574 136.901 58.4423 137.261 60.6334C138.051 65.4692 138.263 66.771 154.123 66.771C164.007 66.771 174.445 65.9581 185.142 64.3619C185.484 64.3089 185.826 64.2853 186.167 64.2853C187.694 64.2853 189.191 64.7919 190.417 65.7402L191.313 66.4352C192.816 67.6074 193.776 69.345 193.953 71.2475L195.344 86.1673C195.491 87.7458 195.091 89.3244 194.213 90.6438L193.617 91.5391C192.486 93.2355 190.659 94.3487 188.631 94.5725C175.447 96.0392 162.062 96.2041 153.139 96.2041L153.127 96.1982ZM146.561 40.3064C140.502 40.3064 133.86 39.9766 127.86 39.3758C126.428 39.2344 125.078 38.6454 123.994 37.6971L123.198 37.002C121.636 35.6355 120.77 33.6329 120.841 31.5595L121.336 17.4349C121.412 15.2909 122.479 13.3059 124.224 12.0572L124.919 11.5624C126.098 10.7201 127.506 10.2725 128.939 10.2725C129.169 10.2725 129.398 10.2843 129.628 10.3078C135.422 10.8851 140.992 11.1678 146.655 11.1678C155.06 11.1678 165.351 10.3314 176.425 8.75281C176.749 8.70569 177.079 8.68213 177.403 8.68213C179.042 8.68213 180.645 9.26526 181.906 10.349L182.602 10.944C184.081 12.2103 184.959 14.0481 185.012 15.9918L185.413 30.0163C185.472 32.0779 184.606 34.057 183.056 35.4117L182.26 36.1067C181.317 36.9314 180.162 37.485 178.924 37.7089C169.299 39.4288 158.408 40.3005 146.561 40.3005V40.3064Z" fill="white"/>
<path d="M117.304 65.4221L129.646 61.3461L130.442 61.7466C132.133 72.0898 137.508 73.6801 154.123 73.6801C164.573 73.6801 175.517 72.7848 186.168 71.1944L187.063 71.8895L188.454 86.8093L187.859 87.7046C176.219 88.9945 164.178 89.2949 153.127 89.2949C123.375 89.2949 118 77.2613 116.803 66.123L117.298 65.428L117.304 65.4221ZM128.95 17.1875C134.921 17.7824 140.791 18.0828 146.661 18.0828C156.215 18.0828 166.96 17.0874 177.409 15.5972L178.105 16.1921L178.506 30.2166L177.71 30.9116C168.256 32.6021 157.706 33.3973 146.561 33.3973C140.986 33.3973 134.52 33.0969 128.55 32.5019L127.754 31.8069L128.249 17.6823L128.945 17.1875H128.95Z" fill="#22969F"/>
<path d="M294.696 92.4521C291.843 92.4521 289.061 91.439 286.857 89.5542C274.103 78.6279 262.81 69.6395 253.233 62.7834C248.577 68.0374 244.451 72.7437 240.231 77.7503C238.239 80.1064 235.422 81.6083 232.357 81.95L231.491 82.0442C231.049 82.0913 230.601 82.1208 230.159 82.1208C227.265 82.1208 224.448 81.0782 222.243 79.158L210.939 69.3097C208.629 67.2952 207.173 64.4797 206.867 61.4286L206.772 60.4627C206.419 56.9109 207.656 53.3886 210.155 50.8381C214.269 46.6443 218.094 42.7274 221.454 39.2757C226.145 34.4635 229.852 30.6643 232.363 28.1551C238.51 22.0116 244.392 19.0253 250.351 19.0253C256.31 19.0253 261.042 21.5463 265.457 24.2499C267.384 14.1365 276.301 6.47339 286.969 6.47339C298.993 6.47339 308.776 16.2923 308.776 28.3612C308.776 36.2187 304.592 43.1161 298.338 46.9506C303.201 50.6084 307.992 54.3604 312.743 58.2303C315.259 60.2742 316.845 63.2487 317.134 66.4824L317.228 67.5426C317.517 70.6998 316.544 73.8451 314.523 76.2895L304.957 87.8755C303.189 90.0136 300.743 91.4803 298.02 92.0222L297.053 92.2165C296.27 92.3756 295.48 92.4521 294.696 92.4521Z" fill="#AED3D6"/>
<path d="M294.696 87.1862C293.093 87.1862 291.525 86.6149 290.287 85.5546C275.783 73.1323 263.129 63.172 252.679 55.9507C252.602 55.9035 252.514 55.8388 252.408 55.7681C246.426 62.5064 241.392 68.1963 236.2 74.3515C235.08 75.6768 233.495 76.525 231.768 76.7135L230.901 76.8077C230.654 76.8372 230.4 76.849 230.153 76.849C228.526 76.849 226.941 76.26 225.703 75.1821L214.399 65.3337C213.096 64.2028 212.277 62.6183 212.106 60.8984L212.012 59.9324C211.811 57.9356 212.513 55.9507 213.916 54.5193C218.035 50.3197 221.86 46.3968 225.226 42.9452C229.905 38.1447 233.601 34.3573 236.088 31.8717C241.192 26.7708 245.86 24.2851 250.351 24.2851C255.762 24.2851 260.612 27.3775 265.304 30.3697C267.402 31.7185 269.465 33.0674 271.504 34.4162C270.755 32.5373 270.343 30.4934 270.343 28.3493C270.343 19.1842 277.804 11.7273 286.975 11.7273C296.146 11.7273 303.507 19.1842 303.507 28.3493C303.507 37.5144 296.087 44.8713 286.975 44.8713C286.869 44.8713 286.763 44.8713 286.657 44.8713C294.372 50.4198 301.857 56.1568 309.419 62.3003C310.833 63.4488 311.723 65.1275 311.888 66.9417L311.983 68.0019C312.142 69.7808 311.599 71.5478 310.462 72.9202L300.896 84.5062C299.906 85.7078 298.527 86.5324 296.995 86.8387L296.028 87.0331C295.586 87.1214 295.144 87.1627 294.702 87.1627L294.696 87.1862Z" fill="white"/>
<path d="M230.147 70.0813L218.843 60.233L218.748 59.267C228.509 49.3185 236.624 40.9191 240.874 36.6723C244.546 33.0027 247.734 31.0707 250.345 31.0707C253.628 31.0707 257.111 33.1971 261.649 36.0951C277.109 46.0435 291.118 56.1805 305.128 67.5721L305.222 68.6323L295.657 80.2183L294.69 80.4127C281.842 69.4039 268.41 58.5896 256.522 50.3787C253.817 48.5469 253.139 48.1581 251.883 48.1581C250.722 48.1581 249.272 49.1241 247.439 51.1503C241.351 58.0065 236.229 63.8024 231.013 69.9812L230.147 70.0754V70.0813ZM296.723 28.3672C296.723 33.6801 292.28 38.1213 286.963 38.1213C281.647 38.1213 277.109 33.6801 277.109 28.3672C277.109 23.0542 281.553 18.5188 286.963 18.5188C292.374 18.5188 296.723 22.96 296.723 28.3672ZM282.519 28.3672C282.519 30.7821 284.547 32.7141 286.963 32.7141C289.38 32.7141 291.313 30.7821 291.313 28.3672C291.313 25.9522 289.38 23.926 286.963 23.926C284.547 23.926 282.519 25.8579 282.519 28.3672Z" fill="#396B72"/>
<path d="M348.901 96.1394C348.147 96.1394 347.387 96.0628 346.638 95.9156L345.642 95.7153C342.648 95.1145 340.013 93.3533 338.316 90.8088L329.357 77.3851C327.66 74.8465 327.047 71.7364 327.648 68.7383L327.849 67.7429C328.621 63.8672 331.332 60.657 335.027 59.2434C340.396 57.1877 345.724 54.761 350.964 51.9985C350.463 51.651 349.992 51.2622 349.55 50.8322C344.711 46.1555 338.958 41.7673 331.962 37.4086C328.968 35.5414 326.988 32.4078 326.605 28.8973L326.505 28.002C326.145 24.7565 327.183 21.5169 329.352 19.0784L339.006 8.24045C340.668 6.37327 342.895 5.0951 345.353 4.60622L346.349 4.40596C347.098 4.2587 347.858 4.18213 348.612 4.18213C350.392 4.18213 352.155 4.59444 353.764 5.3955C361.031 9.02974 369.7 14.9081 376.39 20.7453C378.895 22.9305 380.333 26.0935 380.333 29.4215V30.4169C380.333 31.0531 380.28 31.6833 380.18 32.3018C387.57 26.1171 394.525 19.2668 400.861 11.8806C403.071 9.30068 406.283 7.85759 409.607 7.85759C410.315 7.85759 411.028 7.92238 411.735 8.05786C415.784 8.81769 419.12 11.6803 420.481 15.5678L425.921 31.0884C426.646 33.0675 427 34.9641 427 36.8843C427 42.1384 424.071 45.3603 422.833 46.6149C404.963 66.2233 382.337 82.0855 353.675 95.1027C352.172 95.786 350.546 96.1335 348.907 96.1335L348.901 96.1394Z" fill="#AED3D6"/>
<path d="M348.901 91.5331C348.447 91.5331 347.994 91.486 347.546 91.3976L346.55 91.1974C344.752 90.8381 343.173 89.7778 342.153 88.2523L333.194 74.8286C332.175 73.303 331.809 71.4359 332.169 69.6394L332.369 68.6439C332.835 66.3173 334.461 64.3912 336.678 63.543C361.585 54.0069 385.62 36.7251 404.356 14.8785C405.682 13.3294 407.609 12.4635 409.607 12.4635C410.032 12.4635 410.462 12.5047 410.886 12.5813C413.315 13.0408 415.319 14.7548 416.132 17.0873L421.584 32.6373C422.126 34.1099 422.391 35.5 422.391 36.8724C422.391 40.377 420.446 42.468 419.491 43.4281C401.798 62.8598 380.274 77.9445 351.766 90.897C350.864 91.3093 349.886 91.5154 348.901 91.5154V91.5331ZM357.559 49.4655C355.779 49.4655 354.052 48.7764 352.756 47.5218C347.681 42.6153 341.675 38.0327 334.403 33.5032C332.605 32.3841 331.42 30.4992 331.184 28.3964L331.084 27.5011C330.866 25.5574 331.491 23.6077 332.794 22.1469L342.448 11.309C343.444 10.1899 344.781 9.42419 346.255 9.12968L347.251 8.92942C347.699 8.84107 348.153 8.79395 348.607 8.79395C349.673 8.79395 350.734 9.04133 351.701 9.52433C358.538 12.9406 367.036 18.713 373.355 24.2262C374.858 25.5397 375.724 27.4363 375.724 29.4331V30.4285C375.724 32.0837 375.129 33.6799 374.056 34.9345L363.706 46.9681C362.569 48.2934 360.966 49.1416 359.227 49.3301L358.331 49.4302C358.078 49.4596 357.824 49.4714 357.571 49.4714L357.559 49.4655Z" fill="white"/>
<path d="M337.956 26.7472L347.611 15.9093L348.607 15.709C354.577 18.6953 362.54 23.9611 368.805 29.4331V30.4285L358.455 42.4621L357.559 42.5623C351.589 36.7958 344.923 31.9187 338.057 27.6425L337.956 26.7472ZM415.077 34.9993C415.377 35.7944 415.478 36.3894 415.478 36.89C415.478 37.5851 415.177 37.9856 414.482 38.6806C396.771 58.1712 375.176 72.6904 348.901 84.6239L347.905 84.4237L338.947 71L339.147 70.0045C363.824 60.5567 389.303 43.0511 409.602 19.3844L415.077 34.9993Z" fill="#396B72"/>
</svg>
